<svg width="210" height="215" viewBox="0 0 210 215" fill="none" xmlns="http://www.w3.org/2000/svg">
<path d="M91.0892 10.5622C91.0892 4.6442 95.8947 -0.198741 101.793 0.28168C118.409 1.63501 134.565 6.12817 149.192 13.5094C166.943 22.468 181.847 35.3811 192.477 51.0136C203.108 66.6462 209.11 84.4752 209.908 102.795C210.707 121.116 206.276 139.314 197.04 155.65C187.803 171.986 174.069 185.913 157.152 196.099C140.236 206.285 120.702 212.389 100.419 213.828C80.136 215.266 59.7827 211.991 41.306 204.315C26.9019 198.331 14.0139 189.829 3.36626 179.344C-1.45461 174.597 -0.202733 166.773 5.45782 163.067C10.379 159.845 16.8912 160.94 21.0942 165.056C29.5768 173.361 39.8219 180.1 51.2626 184.852C66.044 190.993 82.3266 193.613 98.5529 192.462C114.779 191.312 130.406 186.428 143.94 178.28C157.473 170.131 168.46 158.989 175.849 145.92C183.239 132.852 186.784 118.293 186.144 103.637C185.505 88.9806 180.704 74.7174 172.2 62.2114C163.695 49.7053 151.772 39.3748 137.571 32.208C126.497 26.6195 114.327 23.1004 101.786 21.8215C95.8989 21.2211 91.0892 16.4803 91.0892 10.5622Z" fill="#B2FFFF"/>
</svg>
