<svg width="898" height="779" viewBox="0 0 898 779" fill="none" xmlns="http://www.w3.org/2000/svg">
<g clip-path="url(#clip0_110_299)" filter="url(#filter0_f_110_299)">
<g filter="url(#filter1_f_110_299)">
<path d="M632.014 292.098C677.504 373.355 670.794 466.122 614.528 511.952C558.263 557.782 452.049 556.744 369.027 524.273C285.612 491.872 225.109 428.746 232.67 347.689C240.68 266.882 316.418 168.532 402.991 154.584C489.509 140.317 586.861 210.452 632.014 292.098Z" fill="#DAA06D"/>
</g>
<g clip-path="url(#clip1_110_299)">
<path d="M375.242 261.363C385.456 261.397 393.736 253.053 393.735 242.726C393.734 232.399 385.453 224 375.238 223.966C365.024 223.932 356.744 232.276 356.745 242.603C356.746 252.93 365.027 261.329 375.242 261.363Z" fill="#FF6584"/>
<path d="M408.615 228.429C399.651 227.174 389.419 232.038 387.096 240.868C386.511 239.295 385.446 237.949 384.057 237.025C382.667 236.1 381.024 235.646 379.365 235.726C377.707 235.807 376.118 236.418 374.829 237.473C373.54 238.527 372.617 239.97 372.194 241.592L373.22 242.338C392.429 246.602 412.313 246.577 431.482 242.266C425.247 235.62 417.579 229.684 408.615 228.429Z" fill="#F0F0F0"/>
<path d="M370.177 253.232C361.213 251.978 350.981 256.842 348.658 265.672C348.073 264.098 347.008 262.752 345.619 261.828C344.229 260.904 342.586 260.449 340.927 260.53C339.269 260.61 337.68 261.222 336.391 262.276C335.102 263.33 334.179 264.773 333.756 266.395L334.782 267.142C353.991 271.405 373.875 271.381 393.044 267.069C386.809 260.424 379.141 254.487 370.177 253.232Z" fill="#F0F0F0"/>
<path d="M438.607 303.465C435.573 298.382 431.978 292.954 426.347 291.278C419.827 289.338 413.13 293.127 407.449 296.868C390.46 308.058 374.099 320.192 358.442 333.213L358.459 333.41C370.65 332.601 382.841 331.792 395.031 330.982C403.839 330.398 412.949 329.729 420.733 325.542C423.686 323.954 426.565 321.828 429.912 321.69C434.07 321.519 437.696 324.468 440.546 327.545C457.402 345.747 462.282 373.512 481.193 389.518C469.267 359.748 455.027 330.974 438.607 303.465Z" fill="#F2F2F2"/>
<path d="M542.226 457.72C540.362 455.334 539.6 454.774 537.761 452.367C522.789 432.742 508.717 412.459 495.544 391.518C486.596 377.295 478.092 362.802 470.031 348.037C466.194 341.018 462.461 333.944 458.834 326.815C456.02 321.288 453.268 315.728 450.579 310.135C449.81 308.538 449.063 306.933 448.319 305.325C446.567 301.542 444.848 297.742 443.002 294.011C440.898 289.758 438.337 285.298 434.475 282.433C432.717 281.076 430.615 280.251 428.415 280.055C425.271 279.84 422.37 281.142 419.643 282.567C399.691 293.019 381.013 306.145 364.118 321.096C347.181 336.08 332.042 353.021 319.01 371.575C318.611 372.149 317.668 371.596 318.071 371.018C319.655 368.758 321.271 366.522 322.919 364.31C343.403 336.831 368.521 313.226 397.124 294.573C401.936 291.436 406.838 288.447 411.832 285.606C414.348 284.174 416.876 282.759 419.447 281.433C421.967 280.133 424.643 278.965 427.523 278.93C437.321 278.809 442.396 290.045 445.882 297.606C446.977 299.985 448.086 302.358 449.208 304.723C453.448 313.701 457.851 322.598 462.418 331.414C465.236 336.857 468.116 342.268 471.057 347.648C480.212 364.401 489.942 380.818 500.248 396.897C513.9 418.197 527.442 437.018 542.994 456.945C543.422 457.496 542.657 458.278 542.226 457.72Z" fill="#E4E4E4"/>
<path d="M363.149 315.553C362.58 314.909 362.014 314.266 361.441 313.622C356.922 308.555 352.073 303.545 345.868 300.628C342.909 299.193 339.68 298.426 336.403 298.378C333.016 298.378 329.705 299.265 326.576 300.512C325.096 301.105 323.649 301.778 322.224 302.496C320.596 303.319 318.996 304.197 317.405 305.083C314.417 306.745 311.467 308.48 308.557 310.289C302.766 313.889 297.156 317.765 291.727 321.918C288.913 324.072 286.157 326.297 283.46 328.593C280.95 330.726 278.492 332.916 276.084 335.164C275.569 335.643 274.8 334.863 275.315 334.384C275.95 333.789 276.592 333.197 277.233 332.612C279.047 330.961 280.889 329.342 282.76 327.755C286.172 324.855 289.672 322.068 293.261 319.393C298.842 315.232 304.615 311.355 310.58 307.763C313.561 305.969 316.583 304.251 319.645 302.608C320.57 302.113 321.506 301.628 322.452 301.17C324.6 300.081 326.831 299.171 329.125 298.446C332.374 297.394 335.811 297.064 339.202 297.478C342.477 297.971 345.632 299.085 348.501 300.761C354.594 304.224 359.319 309.564 363.918 314.774C364.383 315.304 363.617 316.082 363.149 315.553Z" fill="#E4E4E4"/>
<path d="M487.985 368.324L502.583 362.974L509.832 360.317C512.192 359.452 514.547 358.466 516.987 357.85C519.145 357.304 521.337 357.221 523.465 357.955C525.342 358.663 527.06 359.746 528.517 361.138C530.006 362.528 531.391 364.028 532.661 365.625C534.239 367.548 535.794 369.491 537.356 371.427C543.803 379.418 550.207 387.444 556.569 395.504C562.931 403.564 569.251 411.658 575.528 419.786C581.82 427.934 588.069 436.116 594.275 444.331C595.035 445.338 595.795 446.345 596.554 447.352C596.973 447.909 597.918 447.365 597.493 446.8C591.241 438.502 584.946 430.238 578.608 422.007C572.253 413.757 565.855 405.541 559.413 397.36C552.971 389.179 546.485 381.034 539.956 372.924C538.33 370.903 536.701 368.885 535.069 366.869C533.692 365.168 532.331 363.449 530.821 361.866C528.05 358.959 524.587 356.387 520.443 356.303C518.006 356.254 515.648 357.028 513.384 357.849C510.943 358.733 508.509 359.635 506.071 360.528L491.371 365.915L487.696 367.262C487.044 367.501 487.325 368.565 487.985 368.324Z" fill="#E4E4E4"/>
<path d="M343.948 306.979C336.528 303.099 327.028 303.823 320.211 308.616C333.215 310.927 346.076 314.005 358.73 317.833C353.475 314.703 349.364 309.811 343.948 306.979Z" fill="#F2F2F2"/>
<path d="M320.138 308.603L318.71 309.772C319.193 309.362 319.695 308.979 320.211 308.616C320.186 308.612 320.162 308.607 320.138 308.603Z" fill="#F2F2F2"/>
<path d="M527.968 368.511C526.531 366.737 524.977 364.88 522.827 364.155L520.82 364.228C536.1 391.571 556.734 415.487 581.457 434.508C563.627 412.509 545.798 390.51 527.968 368.511Z" fill="#F2F2F2"/>
<path d="M378.526 437.093C379.343 430.444 383.42 423.903 389.695 421.759C387.221 428.598 387.222 436.109 389.699 442.964C390.663 445.604 392.007 448.44 391.101 451.094C390.537 452.746 389.156 454.006 387.613 454.792C386.07 455.578 384.357 455.95 382.666 456.313L382.333 456.591C379.648 450.453 377.708 443.742 378.526 437.093Z" fill="#F0F0F0"/>
<path d="M389.757 421.885C386.104 426.012 383.833 431.203 383.268 436.72C383.125 437.906 383.169 439.107 383.396 440.28C383.654 441.416 384.208 442.462 385 443.31C385.723 444.115 386.555 444.855 387.072 445.823C387.33 446.323 387.48 446.871 387.513 447.433C387.547 447.995 387.462 448.557 387.265 449.083C386.809 450.405 385.909 451.482 384.992 452.503C383.975 453.638 382.9 454.8 382.468 456.306C382.415 456.489 382.138 456.395 382.19 456.213C382.943 453.591 385.462 452.109 386.663 449.75C387.224 448.649 387.459 447.369 386.933 446.203C386.474 445.184 385.617 444.42 384.878 443.611C384.093 442.795 383.517 441.799 383.2 440.708C382.915 439.55 382.826 438.352 382.937 437.165C383.146 434.49 383.77 431.866 384.787 429.389C385.931 426.555 387.547 423.942 389.564 421.663C389.689 421.522 389.882 421.745 389.757 421.885Z" fill="white"/>
<path d="M383.346 434.933C382.443 434.708 381.648 434.167 381.101 433.405C380.555 432.643 380.294 431.711 380.364 430.774C380.379 430.585 380.671 430.6 380.656 430.79C380.589 431.662 380.832 432.53 381.343 433.239C381.853 433.947 382.596 434.448 383.438 434.653C383.621 434.697 383.528 434.977 383.346 434.933Z" fill="white"/>
<path d="M384.581 442.95C386.211 441.971 387.415 440.405 387.952 438.565C388.005 438.382 388.282 438.476 388.229 438.658C387.667 440.572 386.411 442.199 384.712 443.214C384.55 443.311 384.42 443.046 384.581 442.95Z" fill="white"/>
<path d="M386.202 426.836C386.534 426.997 386.899 427.071 387.266 427.054C387.633 427.036 387.989 426.927 388.303 426.735C388.464 426.637 388.594 426.902 388.435 427C388.087 427.21 387.693 427.33 387.288 427.35C386.883 427.371 386.478 427.29 386.11 427.116C386.074 427.103 386.045 427.076 386.027 427.041C386.01 427.007 386.006 426.967 386.017 426.93C386.03 426.892 386.056 426.862 386.09 426.844C386.125 426.827 386.165 426.824 386.202 426.836Z" fill="white"/>
<path d="M408.823 433.704C408.724 433.769 408.626 433.833 408.527 433.9C407.206 434.774 405.957 435.756 404.793 436.835C404.702 436.917 404.611 437.001 404.522 437.086C401.746 439.716 399.48 442.846 397.837 446.317C397.185 447.698 396.637 449.129 396.2 450.595C395.596 452.62 395.1 454.865 393.904 456.519C393.781 456.693 393.648 456.859 393.505 457.017L382.695 456.981C382.671 456.968 382.646 456.958 382.621 456.946L382.19 456.964C382.207 456.887 382.226 456.807 382.244 456.73C382.254 456.685 382.266 456.64 382.276 456.595C382.283 456.565 382.291 456.536 382.296 456.508C382.298 456.498 382.301 456.488 382.303 456.481C382.308 456.453 382.315 456.428 382.32 456.403C382.429 455.958 382.54 455.512 382.656 455.066C382.656 455.063 382.656 455.063 382.658 455.061C383.502 451.654 384.744 448.362 386.356 445.254C386.406 445.162 386.455 445.067 386.509 444.975C387.256 443.599 388.113 442.288 389.071 441.054C389.598 440.38 390.159 439.734 390.751 439.117C392.283 437.527 394.054 436.192 395.999 435.16C399.875 433.103 404.364 432.325 408.507 433.603C408.613 433.636 408.717 433.669 408.823 433.704Z" fill="#F0F0F0"/>
<path d="M408.799 433.843C403.416 434.906 398.507 437.658 394.769 441.707C393.949 442.565 393.269 443.548 392.752 444.62C392.282 445.682 392.103 446.852 392.232 448.01C392.331 449.091 392.557 450.186 392.394 451.272C392.303 451.827 392.096 452.356 391.788 452.823C391.48 453.291 391.078 453.687 390.607 453.986C389.454 454.762 388.093 455.071 386.751 455.327C385.261 455.611 383.709 455.882 382.465 456.819C382.315 456.932 382.148 456.689 382.299 456.575C384.462 454.945 387.362 455.299 389.728 454.151C390.833 453.615 391.783 452.739 392.057 451.491C392.296 450.399 392.064 449.269 391.955 448.175C391.812 447.048 391.945 445.903 392.341 444.842C392.802 443.746 393.444 442.738 394.24 441.861C396 439.857 398.063 438.147 400.351 436.793C402.954 435.233 405.804 434.135 408.776 433.548C408.96 433.512 408.981 433.807 408.799 433.843Z" fill="white"/>
<path d="M395.897 440.331C395.308 439.603 394.993 438.687 395.01 437.748C395.026 436.809 395.372 435.907 395.986 435.204C396.111 435.062 396.335 435.252 396.21 435.394C395.637 436.048 395.315 436.888 395.302 437.762C395.288 438.637 395.585 439.489 396.137 440.164C396.257 440.311 396.016 440.477 395.897 440.331Z" fill="white"/>
<path d="M392.111 447.468C393.999 447.681 395.895 447.166 397.421 446.027C397.572 445.914 397.738 446.158 397.587 446.271C395.997 447.453 394.023 447.984 392.058 447.758C391.871 447.737 391.924 447.446 392.111 447.468Z" fill="white"/>
<path d="M403.004 435.622C403.174 435.951 403.422 436.233 403.726 436.443C404.03 436.652 404.381 436.782 404.746 436.82C404.934 436.84 404.88 437.13 404.694 437.111C404.291 437.066 403.904 436.922 403.567 436.692C403.231 436.462 402.955 436.152 402.764 435.789C402.743 435.756 402.735 435.717 402.742 435.679C402.749 435.641 402.77 435.607 402.801 435.584C402.833 435.562 402.872 435.553 402.91 435.56C402.948 435.567 402.982 435.589 403.004 435.622Z" fill="white"/>
<path d="M457.116 401.21C451.812 389.335 452.006 374.306 460.234 364.328C462.988 378.212 470.508 390.679 481.462 399.525C485.699 402.921 490.759 406.253 491.917 411.588C492.637 414.907 491.617 418.412 489.853 421.295C488.088 424.178 485.628 426.547 483.197 428.881L482.924 429.681C472.341 422.239 462.419 413.084 457.116 401.21Z" fill="#F0F0F0"/>
<path d="M460.463 364.474C458.554 375.063 459.995 386.003 464.582 395.74C465.533 397.853 466.807 399.803 468.357 401.518C469.92 403.139 471.883 404.309 474.041 404.906C476.042 405.503 478.157 405.88 479.982 406.959C480.908 407.525 481.705 408.282 482.323 409.18C482.94 410.079 483.363 411.099 483.563 412.172C484.133 414.835 483.722 417.543 483.229 420.176C482.683 423.1 482.069 426.128 482.862 429.072C482.958 429.429 482.405 429.557 482.309 429.201C480.929 424.079 483.611 419.041 483.236 413.895C483.061 411.494 482.169 409.129 480.133 407.732C478.352 406.51 476.172 406.119 474.14 405.532C472.027 404.981 470.077 403.915 468.461 402.428C466.83 400.798 465.484 398.901 464.481 396.817C462.149 392.161 460.554 387.166 459.755 382.015C458.811 376.141 458.867 370.151 459.921 364.303C459.986 363.941 460.528 364.114 460.463 364.474Z" fill="white"/>
<path d="M462.923 392.692C461.205 393.243 459.348 393.158 457.682 392.452C456.016 391.746 454.651 390.466 453.83 388.839C453.665 388.509 454.163 388.236 454.329 388.567C455.09 390.083 456.362 391.275 457.914 391.929C459.467 392.583 461.197 392.656 462.794 392.133C463.141 392.02 463.268 392.579 462.923 392.692Z" fill="white"/>
<path d="M472.987 404.738C474.703 401.445 475.126 397.614 474.172 394.01C474.077 393.653 474.629 393.525 474.724 393.881C475.71 397.633 475.262 401.619 473.469 405.042C473.298 405.369 472.817 405.063 472.987 404.738Z" fill="white"/>
<path d="M459.54 376.33C460.249 376.257 460.929 376.007 461.517 375.603C462.106 375.198 462.586 374.652 462.913 374.013C463.08 373.685 463.561 373.991 463.395 374.317C463.03 375.022 462.5 375.624 461.85 376.073C461.201 376.521 460.452 376.801 459.669 376.889C459.596 376.904 459.52 376.889 459.457 376.849C459.394 376.809 459.348 376.747 459.329 376.674C459.312 376.6 459.325 376.522 459.364 376.458C459.404 376.393 459.467 376.348 459.54 376.33Z" fill="white"/>
<path d="M503.811 364.589C503.713 364.797 503.614 365.005 503.518 365.218C502.208 368.021 501.126 370.927 500.283 373.909C500.214 374.138 500.148 374.372 500.086 374.603C498.129 381.809 497.514 389.324 498.272 396.766C498.576 399.727 499.103 402.661 499.847 405.543C500.876 409.523 502.303 413.756 501.982 417.726C501.953 418.14 501.898 418.553 501.819 418.96L483.912 429.959C483.859 429.963 483.808 429.972 483.755 429.976L483.06 430.449C483.011 430.303 482.964 430.15 482.915 430.004C482.887 429.92 482.862 429.833 482.834 429.748C482.816 429.691 482.798 429.634 482.779 429.583C482.773 429.564 482.767 429.545 482.764 429.53C482.744 429.48 482.732 429.431 482.715 429.384C482.448 428.533 482.186 427.678 481.93 426.82C481.928 426.816 481.928 426.816 481.929 426.81C479.994 420.267 478.582 413.506 478.229 406.746C478.218 406.543 478.205 406.335 478.202 406.127C478.06 403.079 478.164 400.026 478.514 396.997C478.71 395.339 478.99 393.692 479.352 392.063C480.294 387.857 481.885 383.828 484.067 380.126C488.418 372.746 495.059 366.862 503.188 364.745C503.396 364.691 503.601 364.639 503.811 364.589Z" fill="#F0F0F0"/>
<path d="M503.91 364.845C496.075 372.116 490.714 381.706 488.588 392.252C488.09 394.514 487.948 396.843 488.168 399.152C488.454 401.395 489.329 403.521 490.701 405.31C491.947 407.004 493.415 408.592 494.234 410.561C494.638 411.575 494.825 412.664 494.785 413.755C494.744 414.847 494.475 415.916 493.996 416.894C492.866 419.361 490.925 421.267 488.962 423.065C486.783 425.06 484.489 427.098 483.371 429.925C483.235 430.268 482.717 430.034 482.852 429.692C484.797 424.773 489.944 422.393 492.708 418.066C493.997 416.047 494.692 413.621 493.894 411.269C493.197 409.211 491.684 407.573 490.408 405.869C489.044 404.143 488.118 402.108 487.71 399.94C487.375 397.649 487.427 395.319 487.865 393.049C488.771 387.921 490.469 382.973 492.897 378.384C495.639 373.131 499.251 368.394 503.578 364.378C503.845 364.13 504.176 364.598 503.91 364.845Z" fill="white"/>
<path d="M489.074 388.815C487.371 388.208 485.935 387.01 485.022 385.434C484.109 383.858 483.779 382.007 484.09 380.212C484.155 379.849 484.716 379.934 484.652 380.298C484.359 381.969 484.666 383.693 485.519 385.159C486.373 386.625 487.715 387.736 489.304 388.291C489.649 388.412 489.418 388.935 489.074 388.815Z" fill="white"/>
<path d="M489.957 404.535C493.292 402.956 495.912 400.163 497.294 396.712C497.431 396.37 497.95 396.604 497.813 396.945C496.368 400.534 493.636 403.436 490.162 405.07C489.83 405.226 489.628 404.69 489.957 404.535Z" fill="white"/>
<path d="M496.11 373.725C496.721 374.099 497.414 374.313 498.126 374.349C498.838 374.386 499.548 374.243 500.19 373.933C500.519 373.773 500.722 374.31 500.395 374.469C499.683 374.807 498.9 374.964 498.113 374.926C497.326 374.888 496.56 374.655 495.881 374.249C495.814 374.216 495.761 374.158 495.735 374.088C495.708 374.018 495.708 373.94 495.736 373.87C495.767 373.801 495.824 373.747 495.894 373.72C495.964 373.693 496.042 373.694 496.11 373.725Z" fill="white"/>
<path d="M538.256 415.21L558.397 399.815L568.216 409.774L535.404 432.368L538.256 415.21Z" fill="#3F3D56"/>
<path d="M519.474 457.719L450.57 457.49L452.986 449.581C467.964 444.149 459.55 432.339 473.796 425.184C508.643 407.684 522.129 355.16 517.024 334.363L539.861 333.463C539.861 333.463 571.407 424.117 519.474 457.719Z" fill="#3F3D56"/>
<path d="M578.294 420.702C576.236 422.525 573.603 423.549 570.862 423.591C568.122 423.634 565.453 422.693 563.328 420.935L563.283 420.898L563.282 420.84C563.256 419.87 563.107 418.907 562.837 417.975C562.823 418.645 562.726 419.311 562.549 419.956L562.491 420.173L562.336 420.011C562.203 419.871 562.073 419.729 561.952 419.589C561.237 418.766 560.638 417.848 560.173 416.86C557.944 412.219 554.716 408.141 550.725 404.924C550.012 404.335 549.349 403.688 548.743 402.989C546.181 400.033 544.739 396.256 544.678 392.332C544.616 388.409 545.937 384.596 548.405 381.576C550.873 378.557 554.327 376.528 558.148 375.853C561.969 375.178 565.907 375.9 569.258 377.892L569.36 377.952L569.307 378.059C568.919 378.872 568.406 379.618 567.788 380.268C568.638 379.807 569.424 379.235 570.127 378.568L570.201 378.497L570.285 378.556C571.386 379.33 572.389 380.236 573.273 381.255L573.369 381.366C574.043 382.148 574.873 382.779 575.804 383.216C576.734 383.653 577.745 383.887 578.77 383.904C580.442 383.938 582.088 384.337 583.595 385.076C585.102 385.814 586.434 386.872 587.499 388.179C588.565 389.486 589.339 391.01 589.767 392.645C590.196 394.281 590.269 395.99 589.982 397.655L589.969 397.732L589.895 397.755C588.595 398.201 587.217 398.371 585.848 398.252C586.992 398.759 588.209 399.071 589.452 399.176L589.613 399.19L589.562 399.344C588.915 401.308 587.763 403.06 586.223 404.423L586.179 404.462C586.164 404.475 586.148 404.489 586.133 404.503C584.986 405.498 584.048 406.715 583.373 408.083C582.699 409.45 582.302 410.942 582.206 412.468C582.13 414.037 581.744 415.573 581.072 416.987C580.401 418.401 579.456 419.664 578.294 420.702Z" fill="#0B4E17"/>
<path opacity="0.15" d="M580.401 416.946C580.38 417.367 580.337 417.787 580.271 418.204C581.399 416.456 582.048 414.435 582.152 412.348C582.167 412.028 582.201 411.71 582.245 411.393C581.149 413.042 580.512 414.96 580.401 416.946Z" fill="black"/>
<path opacity="0.15" d="M584.044 402.729C584.963 403.135 585.932 403.415 586.924 403.562C587.306 403.155 587.659 402.721 587.979 402.264C586.713 402.688 585.374 402.846 584.044 402.729Z" fill="black"/>
<path opacity="0.15" d="M588.288 398.899C588.39 399.911 588.363 400.932 588.206 401.936C588.755 401.093 589.193 400.181 589.509 399.223L589.56 399.069L589.399 399.055C589.026 399.022 588.655 398.97 588.288 398.899Z" fill="black"/>
<path opacity="0.15" d="M587.215 387.784C586.149 386.558 584.843 385.569 583.379 384.88C581.916 384.191 580.328 383.817 578.716 383.783C577.691 383.767 576.681 383.532 575.75 383.095C574.819 382.658 573.99 382.027 573.315 381.245L573.22 381.134C572.336 380.115 571.332 379.209 570.232 378.435L570.148 378.377L570.073 378.447C569.371 379.115 568.585 379.686 567.735 380.148C568.353 379.497 568.865 378.751 569.253 377.938L569.306 377.831L569.204 377.771C566.983 376.449 564.486 375.676 561.916 375.514C559.347 375.353 556.779 375.808 554.42 376.842C552.062 377.876 549.981 379.46 548.347 381.464C546.712 383.469 545.571 385.837 545.016 388.376C546.085 386.481 547.516 384.821 549.226 383.491C550.936 382.162 552.891 381.19 554.978 380.631C557.065 380.072 559.242 379.938 561.383 380.236C563.525 380.535 565.588 381.26 567.453 382.369L567.555 382.43L567.502 382.536C567.114 383.349 566.602 384.095 565.984 384.746C566.833 384.285 567.62 383.713 568.322 383.045L568.396 382.975L568.48 383.034C569.581 383.807 570.585 384.714 571.469 385.733L571.564 385.843C572.238 386.626 573.068 387.256 573.999 387.693C574.929 388.131 575.94 388.365 576.965 388.381C579.645 388.436 582.226 389.429 584.268 391.19C586.311 392.951 587.688 395.372 588.165 398.04C588.732 397.94 589.291 397.804 589.841 397.634L589.915 397.611L589.928 397.534C590.229 395.81 590.141 394.038 589.671 392.35C589.202 390.662 588.362 389.101 587.215 387.784Z" fill="black"/>
<path d="M611.589 339.662C611.589 348.584 608.459 357.206 602.757 363.995C597.054 370.785 589.148 375.301 580.444 376.742L580.26 376.772L580.117 376.651C577.744 374.642 575.124 372.952 572.324 371.624C573.898 373.087 575.284 374.744 576.451 376.555L576.848 377.16L576.133 377.192C575.516 377.221 574.902 377.234 574.31 377.232C570.828 377.223 567.363 376.726 564.014 375.754C548.8 371.328 532.462 370.525 515.456 373.368C512.54 373.854 509.588 374.093 506.631 374.083C477.633 373.987 454.039 350.052 454.037 320.729C454.02 309.549 457.494 298.66 463.965 289.616C470.435 280.572 479.571 273.833 490.071 270.36L490.432 270.24L490.575 270.597C491.697 273.281 492.395 276.125 492.643 279.025C493.339 275.963 493.638 272.821 493.53 269.679L493.518 269.347L493.837 269.267C498.019 268.228 502.312 267.709 506.621 267.724L507.088 267.728C510.388 267.749 513.653 267.066 516.67 265.725C519.687 264.384 522.389 262.413 524.598 259.943C528.222 255.928 532.665 252.758 537.622 250.65C542.58 248.542 547.934 247.546 553.316 247.731C558.698 247.916 563.98 249.277 568.8 251.722C573.619 254.166 577.862 257.635 581.235 261.89L581.392 262.087L581.288 262.317C579.11 267.164 576.737 270.692 573.905 273.269C577.54 271.557 580.867 269.247 583.751 266.433L584.123 266.069L584.385 266.523C587.709 272.297 589.46 278.856 589.458 285.527L589.458 285.717C589.457 285.784 589.457 285.852 589.457 285.919C589.458 296.125 593.362 305.81 600.187 312.523C603.776 316.057 606.634 320.278 608.592 324.939C610.55 329.599 611.569 334.605 611.589 339.662Z" fill="#0B4E17"/>
<g opacity="0.15">
<path d="M566 250.431C564.715 252.584 563.133 254.54 561.303 256.242C563.924 255.007 566.388 253.458 568.642 251.628C567.777 251.195 566.897 250.796 566 250.431Z" fill="black"/>
<path d="M587.585 295.496C589.613 297.492 591.412 299.713 592.947 302.116C590.636 297.033 589.446 291.506 589.457 285.919C589.457 285.852 589.457 285.784 589.457 285.717L589.458 285.527C589.46 278.856 587.709 272.297 584.385 266.523L584.123 266.069L583.751 266.433C581.696 268.435 579.413 270.184 576.952 271.645C577.587 280.824 581.378 289.39 587.585 295.496Z" fill="black"/>
<path d="M576.856 268.5L576.856 268.69C576.855 268.757 576.855 268.825 576.855 268.892C576.855 269.262 576.862 269.631 576.872 270C578.628 267.617 580.109 265.04 581.288 262.317L581.392 262.087L581.235 261.89C579.267 259.409 577.001 257.186 574.489 255.273C576.054 259.506 576.855 263.986 576.856 268.5Z" fill="black"/>
<path d="M600.187 312.523C598.393 310.753 596.799 308.787 595.434 306.662C597.878 311.933 599.084 317.701 598.956 323.514C598.828 329.326 597.371 335.025 594.698 340.164C592.026 345.303 588.21 349.742 583.551 353.134C578.891 356.526 573.515 358.778 567.842 359.715L567.658 359.744L567.516 359.624C565.142 357.615 562.523 355.925 559.722 354.596C561.296 356.06 562.683 357.717 563.85 359.528L564.247 360.133L563.531 360.165C562.914 360.194 562.3 360.207 561.708 360.205C558.226 360.196 554.762 359.699 551.412 358.727C536.198 354.301 519.861 353.498 502.854 356.341C499.938 356.827 496.986 357.066 494.029 357.056C481.14 357.023 468.699 352.186 459.089 343.469C463.352 352.587 470.083 360.303 478.498 365.722C486.914 371.141 496.669 374.041 506.631 374.084C509.588 374.094 512.54 373.854 515.456 373.369C532.462 370.525 548.8 371.328 564.014 375.755C567.363 376.726 570.828 377.224 574.309 377.232C574.902 377.234 575.515 377.221 576.133 377.193L576.848 377.16L576.451 376.556C575.284 374.744 573.898 373.087 572.324 371.624C575.124 372.952 577.744 374.642 580.117 376.651L580.26 376.772L580.444 376.742C587.256 375.619 593.618 372.603 598.822 368.032C604.025 363.46 607.865 357.512 609.913 350.851C611.961 344.191 612.135 337.08 610.418 330.312C608.7 323.544 605.158 317.385 600.187 312.523Z" fill="black"/>
</g>
<path d="M424.725 329.501C422.718 327.308 421.677 324.024 422.744 321.247C424.343 324.064 426.873 326.223 429.889 327.341C431.053 327.767 432.392 328.12 433.028 329.195C433.395 329.89 433.485 330.7 433.279 331.459C433.072 332.209 432.77 332.928 432.381 333.6L432.38 333.794C429.546 332.954 426.732 331.694 424.725 329.501Z" fill="#0B4E17"/>
<path d="M524.412 393.244C522.405 391.052 521.364 387.768 522.431 384.99C524.029 387.808 526.56 389.967 529.576 391.084C530.74 391.511 532.079 391.863 532.715 392.939C533.082 393.634 533.172 394.444 532.966 395.203C532.759 395.952 532.457 396.672 532.068 397.343L532.066 397.538C529.233 396.698 526.419 395.437 524.412 393.244Z" fill="#0B4E17"/>
<path d="M571.419 434.328C570.017 431.699 569.821 428.259 571.542 425.842C572.394 428.972 574.312 431.701 576.957 433.545C577.98 434.252 579.19 434.931 579.54 436.132C579.724 436.898 579.611 437.705 579.224 438.386C578.837 439.059 578.366 439.678 577.824 440.23L577.774 440.417C575.236 438.888 572.821 436.957 571.419 434.328Z" fill="#0B4E17"/>
<path d="M605.295 383.768C603.892 381.139 603.696 377.699 605.417 375.282C606.269 378.412 608.187 381.141 610.833 382.984C611.856 383.692 613.066 384.371 613.416 385.572C613.6 386.338 613.486 387.145 613.099 387.826C612.712 388.499 612.242 389.118 611.699 389.67L611.649 389.857C609.111 388.328 606.697 386.397 605.295 383.768Z" fill="#0B4E17"/>
<path d="M383.815 402.563C382.413 399.934 382.217 396.494 383.938 394.078C384.789 397.208 386.708 399.936 389.353 401.78C390.376 402.488 391.586 403.167 391.936 404.368C392.12 405.133 392.007 405.94 391.619 406.622C391.233 407.294 390.762 407.914 390.219 408.465L390.17 408.653C387.632 407.124 385.217 405.192 383.815 402.563Z" fill="#E6E6E6"/>
<path d="M510.411 428.117C511.627 418.222 517.694 408.49 527.031 405.3C523.349 415.476 523.351 426.652 527.036 436.852C528.471 440.78 530.471 445 529.122 448.95C528.283 451.408 526.229 453.284 523.933 454.453C521.636 455.623 519.088 456.175 516.572 456.717L516.076 457.129C512.081 447.996 509.194 438.011 510.411 428.117Z" fill="#E6E6E6"/>
<path d="M527.123 405.487C521.687 411.629 518.308 419.353 517.467 427.562C517.255 429.326 517.319 431.114 517.658 432.859C518.042 434.549 518.866 436.105 520.045 437.367C521.121 438.565 522.358 439.666 523.128 441.107C523.511 441.85 523.735 442.667 523.784 443.503C523.834 444.339 523.708 445.175 523.415 445.957C522.736 447.926 521.397 449.527 520.033 451.048C518.519 452.735 516.92 454.464 516.276 456.706C516.199 456.978 515.786 456.838 515.864 456.567C516.983 452.666 520.732 450.461 522.52 446.95C523.354 445.311 523.704 443.407 522.921 441.673C522.237 440.155 520.962 439.02 519.863 437.816C518.695 436.602 517.838 435.119 517.366 433.495C516.941 431.773 516.809 429.99 516.975 428.224C517.286 424.243 518.215 420.338 519.727 416.653C521.429 412.437 523.834 408.549 526.836 405.157C527.022 404.947 527.308 405.279 527.123 405.487Z" fill="white"/>
<path d="M517.584 424.902C516.24 424.568 515.056 423.762 514.243 422.628C513.43 421.495 513.042 420.107 513.146 418.714C513.168 418.432 513.603 418.455 513.581 418.737C513.481 420.035 513.843 421.327 514.602 422.381C515.361 423.435 516.467 424.181 517.72 424.485C517.992 424.552 517.854 424.968 517.584 424.902Z" fill="white"/>
<path d="M519.42 436.832C521.847 435.375 523.638 433.045 524.437 430.306C524.516 430.035 524.929 430.175 524.85 430.446C524.013 433.294 522.145 435.714 519.616 437.225C519.375 437.369 519.181 436.975 519.42 436.832Z" fill="white"/>
<path d="M521.833 412.854C522.326 413.093 522.87 413.204 523.416 413.178C523.962 413.152 524.492 412.989 524.96 412.704C525.199 412.558 525.393 412.952 525.155 413.098C524.637 413.41 524.052 413.589 523.449 413.619C522.846 413.65 522.244 413.53 521.696 413.271C521.643 413.251 521.599 413.211 521.573 413.16C521.547 413.108 521.542 413.049 521.558 412.993C521.576 412.938 521.616 412.893 521.667 412.867C521.718 412.841 521.778 412.836 521.833 412.854Z" fill="white"/>
<path d="M555.493 423.074C555.346 423.17 555.199 423.266 555.053 423.366C553.086 424.666 551.228 426.127 549.497 427.733C549.361 427.855 549.225 427.98 549.093 428.106C544.963 432.02 541.59 436.677 539.146 441.842C538.175 443.898 537.361 446.026 536.71 448.208C535.811 451.221 535.074 454.562 533.294 457.023C533.111 457.282 532.913 457.529 532.699 457.763L516.615 457.71C516.578 457.691 516.541 457.676 516.505 457.657L515.862 457.685C515.888 457.57 515.917 457.451 515.943 457.336C515.958 457.27 515.976 457.203 515.991 457.136C516.002 457.092 516.013 457.047 516.02 457.006C516.024 456.992 516.028 456.977 516.031 456.966C516.038 456.925 516.05 456.888 516.057 456.851C516.218 456.187 516.385 455.523 516.556 454.86C516.556 454.856 516.556 454.856 516.559 454.853C517.876 449.8 519.623 444.815 522.063 440.26C522.136 440.123 522.209 439.982 522.29 439.845C523.401 437.798 524.676 435.847 526.103 434.01C526.887 433.008 527.721 432.046 528.602 431.128C530.882 428.763 533.517 426.776 536.41 425.24C542.179 422.18 548.858 421.022 555.023 422.924C555.181 422.973 555.335 423.022 555.493 423.074Z" fill="#E6E6E6"/>
<path d="M555.457 423.281C547.447 424.862 540.143 428.957 534.581 434.983C533.361 436.259 532.348 437.721 531.58 439.318C530.881 440.897 530.614 442.639 530.806 444.361C530.953 445.97 531.289 447.6 531.047 449.216C530.911 450.041 530.604 450.828 530.145 451.524C529.687 452.22 529.088 452.809 528.388 453.254C526.672 454.408 524.647 454.868 522.65 455.249C520.433 455.671 518.123 456.075 516.273 457.469C516.049 457.638 515.801 457.275 516.025 457.107C519.244 454.681 523.559 455.207 527.08 453.499C528.724 452.702 530.138 451.399 530.545 449.541C530.9 447.916 530.556 446.235 530.393 444.607C530.181 442.93 530.378 441.227 530.968 439.647C531.653 438.016 532.609 436.516 533.793 435.211C536.413 432.23 539.482 429.685 542.887 427.67C546.76 425.349 551 423.716 555.423 422.842C555.697 422.788 555.729 423.227 555.457 423.281Z" fill="white"/>
<path d="M536.259 432.936C535.382 431.851 534.914 430.489 534.939 429.091C534.963 427.694 535.478 426.352 536.392 425.306C536.577 425.095 536.911 425.378 536.726 425.589C535.873 426.562 535.393 427.811 535.373 429.113C535.353 430.414 535.794 431.682 536.616 432.686C536.795 432.905 536.436 433.153 536.259 432.936Z" fill="white"/>
<path d="M530.625 443.554C533.435 443.871 536.256 443.106 538.526 441.411C538.751 441.243 538.998 441.606 538.774 441.774C536.408 443.533 533.471 444.323 530.547 443.987C530.269 443.954 530.348 443.522 530.625 443.554Z" fill="white"/>
<path d="M546.835 425.927C547.088 426.418 547.457 426.838 547.909 427.149C548.362 427.46 548.883 427.653 549.427 427.711C549.706 427.74 549.626 428.172 549.349 428.143C548.749 428.077 548.173 427.863 547.673 427.52C547.172 427.177 546.762 426.716 546.477 426.176C546.446 426.128 546.435 426.069 546.445 426.012C546.455 425.955 546.486 425.905 546.532 425.871C546.58 425.838 546.638 425.825 546.695 425.836C546.751 425.847 546.802 425.879 546.835 425.927Z" fill="white"/>
<path d="M428.767 429.202L415.416 418.91L408.91 425.467L430.659 440.586L428.767 429.202Z" fill="#3F3D56"/>
<path d="M441.221 457.459L486.887 457.611L485.285 452.359C475.358 448.692 480.933 440.902 471.49 436.097C448.393 424.345 439.448 389.474 442.829 375.713L427.693 375.016C427.693 375.016 406.797 434.959 441.221 457.459Z" fill="#3F3D56"/>
<path d="M399.638 427.191C399.574 426.179 399.311 425.189 398.864 424.279C398.417 423.37 397.795 422.559 397.035 421.895C397.024 421.886 397.014 421.876 397.004 421.867L396.974 421.841C395.954 420.931 395.19 419.765 394.761 418.46L394.727 418.358L394.834 418.35C395.657 418.285 396.465 418.084 397.222 417.753C396.315 417.826 395.402 417.707 394.541 417.405L394.491 417.39L394.482 417.339C394.292 416.234 394.34 415.102 394.624 414.02C394.908 412.938 395.421 411.931 396.127 411.07C396.833 410.208 397.715 409.513 398.714 409.03C399.713 408.548 400.804 408.29 401.912 408.275C402.591 408.268 403.261 408.118 403.878 407.832C404.494 407.546 405.044 407.132 405.491 406.617L405.554 406.544C406.14 405.872 406.805 405.276 407.535 404.768L407.59 404.729L407.639 404.776C408.105 405.222 408.626 405.604 409.189 405.914C408.78 405.48 408.44 404.983 408.183 404.443L408.148 404.372L408.215 404.332C410.436 403.027 413.046 402.565 415.578 403.03C418.111 403.494 420.4 404.854 422.036 406.866C423.672 408.878 424.549 411.411 424.508 414.011C424.468 416.611 423.513 419.109 421.815 421.056C421.413 421.517 420.974 421.943 420.502 422.33C417.857 424.444 415.718 427.133 414.241 430.199C413.933 430.852 413.536 431.458 413.063 432C412.982 432.092 412.896 432.186 412.808 432.278L412.705 432.384L412.667 432.24C412.549 431.812 412.485 431.37 412.476 430.926C412.297 431.543 412.198 432.18 412.181 432.823L412.18 432.861L412.151 432.886C411.05 433.791 409.72 434.368 408.312 434.553C406.903 434.737 405.469 434.522 404.172 433.932C402.874 433.341 401.763 432.398 400.962 431.208C400.162 430.018 399.703 428.627 399.638 427.191Z" fill="#E6E6E6"/>
<path opacity="0.15" d="M400.835 430.167C400.849 430.446 400.878 430.725 400.921 431.001C400.173 429.838 399.743 428.496 399.674 427.111C399.664 426.9 399.642 426.688 399.612 426.478C400.339 427.576 400.761 428.85 400.835 430.167Z" fill="black"/>
<path opacity="0.15" d="M398.419 420.728C397.809 420.993 397.168 421.174 396.51 421.267C396.257 420.996 396.023 420.707 395.811 420.402C396.65 420.689 397.537 420.8 398.419 420.728Z" fill="black"/>
<path opacity="0.15" d="M395.606 418.171C395.538 418.841 395.556 419.518 395.66 420.184C395.296 419.623 395.006 419.017 394.797 418.38L394.763 418.278L394.869 418.27C395.116 418.249 395.362 418.216 395.606 418.171Z" fill="black"/>
<path opacity="0.15" d="M396.315 410.809C397.021 410.001 397.887 409.351 398.857 408.901C399.827 408.451 400.879 408.21 401.947 408.195C402.627 408.188 403.296 408.038 403.913 407.752C404.53 407.466 405.08 407.052 405.527 406.537L405.59 406.464C406.176 405.792 406.841 405.196 407.57 404.688L407.626 404.649L407.675 404.697C408.141 405.142 408.662 405.524 409.225 405.834C408.815 405.4 408.476 404.903 408.218 404.363L408.183 404.292L408.251 404.252C409.723 403.386 411.378 402.884 413.081 402.789C414.784 402.693 416.486 403.006 418.049 403.702C419.612 404.397 420.992 405.456 422.075 406.792C423.158 408.128 423.915 409.703 424.283 411.388C423.574 410.127 422.626 409.02 421.492 408.132C420.359 407.243 419.063 406.59 417.68 406.21C416.297 405.831 414.854 405.732 413.434 405.921C412.015 406.109 410.648 406.58 409.412 407.307L409.344 407.347L409.38 407.418C409.637 407.959 409.976 408.455 410.386 408.889C409.823 408.58 409.302 408.197 408.836 407.752L408.787 407.705L408.731 407.743C408.002 408.251 407.337 408.847 406.751 409.519L406.688 409.592C406.241 410.107 405.691 410.522 405.074 410.807C404.458 411.093 403.788 411.244 403.109 411.25C401.333 411.274 399.622 411.921 398.269 413.079C396.915 414.238 396.003 415.836 395.687 417.602C395.311 417.533 394.94 417.441 394.576 417.325L394.527 417.31L394.518 417.259C394.319 416.115 394.377 414.941 394.688 413.824C394.999 412.708 395.555 411.677 396.315 410.809Z" fill="black"/>
<path d="M387.709 360.871C392.231 356.453 394.817 350.051 394.817 343.287C394.817 343.242 394.817 343.198 394.816 343.153L394.816 343.027C394.814 338.605 395.973 334.266 398.176 330.454L398.349 330.154L398.596 330.397C400.508 332.275 402.713 333.821 405.123 334.971C403.245 333.251 401.672 330.902 400.228 327.68L400.159 327.527L400.263 327.398C402.498 324.592 405.309 322.312 408.503 320.713C411.697 319.114 415.198 318.235 418.765 318.136C422.332 318.038 425.881 318.721 429.166 320.14C432.452 321.559 435.398 323.68 437.799 326.357C439.264 328.004 441.055 329.322 443.055 330.224C445.055 331.126 447.219 331.593 449.406 331.594L449.715 331.594C452.571 331.603 455.417 331.965 458.188 332.672L458.399 332.727L458.392 332.947C458.321 335.029 458.519 337.113 458.981 339.145C459.145 337.224 459.607 335.342 460.35 333.568L460.445 333.332L460.684 333.413C468.545 336.077 475.221 341.479 479.517 348.653C483.812 355.826 485.447 364.303 484.128 372.565C482.809 380.827 478.622 388.335 472.318 393.744C466.014 399.152 458.004 402.109 449.722 402.085C447.762 402.078 445.805 401.907 443.873 401.572C432.601 399.612 421.773 400.072 411.69 402.939C409.471 403.568 407.174 403.882 404.867 403.873C404.475 403.871 404.068 403.86 403.659 403.838L403.184 403.814L403.448 403.415C404.221 402.219 405.14 401.127 406.183 400.164C404.327 401.033 402.59 402.141 401.018 403.462L400.923 403.541L400.801 403.521C396.287 402.746 392.069 400.72 388.62 397.667C385.171 394.614 382.625 390.655 381.267 386.231C379.909 381.808 379.793 377.094 380.93 372.616C382.067 368.138 384.414 364.072 387.709 360.871Z" fill="#E6E6E6"/>
<g opacity="0.15">
<path d="M410.359 319.87C411.211 321.302 412.259 322.606 413.472 323.742C411.735 322.912 410.102 321.874 408.608 320.652C409.181 320.368 409.765 320.108 410.359 319.87Z" fill="black"/>
<path d="M396.058 349.642C394.715 350.956 393.523 352.42 392.506 354.006C394.036 350.648 394.825 346.99 394.817 343.287C394.817 343.242 394.817 343.198 394.816 343.153L394.816 343.027C394.814 338.605 395.973 334.266 398.176 330.454L398.349 330.154L398.596 330.397C399.958 331.733 401.471 332.902 403.103 333.882C402.683 339.962 400.172 345.623 396.058 349.642Z" fill="black"/>
<path d="M403.166 331.797L403.166 331.923C403.166 331.968 403.166 332.013 403.166 332.057C403.166 332.303 403.162 332.547 403.155 332.791C401.991 331.205 401.009 329.49 400.228 327.68L400.159 327.527L400.263 327.397C401.567 325.762 403.068 324.298 404.733 323.041C403.697 325.84 403.166 328.806 403.166 331.797Z" fill="black"/>
<path d="M387.709 360.871C388.897 359.706 389.953 358.41 390.858 357.008C389.238 360.491 388.44 364.308 388.526 368.161C388.611 372.014 389.577 375.797 391.349 379.215C393.121 382.633 395.651 385.592 398.739 387.86C401.828 390.129 405.392 391.646 409.151 392.291L409.273 392.312L409.368 392.232C410.94 390.912 412.676 389.803 414.533 388.935C413.49 389.898 412.571 390.99 411.797 392.185L411.534 392.584L412.008 392.609C412.418 392.63 412.824 392.642 413.217 392.643C415.524 392.653 417.821 392.339 420.04 391.709C430.123 388.843 440.951 388.383 452.223 390.342C454.155 390.677 456.112 390.849 458.072 390.855C466.614 390.89 474.859 387.739 481.227 382.004C478.403 388.028 473.943 393.113 468.366 396.667C462.789 400.221 456.324 402.1 449.722 402.085C447.762 402.078 445.805 401.907 443.873 401.572C432.601 399.612 421.773 400.072 411.69 402.939C409.471 403.568 407.174 403.882 404.867 403.873C404.475 403.871 404.068 403.86 403.659 403.838L403.184 403.814L403.448 403.415C404.221 402.219 405.14 401.127 406.183 400.164C404.327 401.033 402.59 402.141 401.018 403.462L400.923 403.541L400.801 403.521C396.287 402.746 392.069 400.72 388.62 397.667C385.171 394.614 382.625 390.655 381.267 386.231C379.909 381.808 379.792 377.094 380.93 372.616C382.067 368.138 384.414 364.072 387.709 360.871Z" fill="black"/>
</g>
<path d="M292.729 429.967C288.736 429.953 284.872 428.508 281.824 425.888C278.777 423.269 276.743 419.645 276.085 415.66L276.071 415.576L276.125 415.511C277.02 414.428 277.773 413.232 278.363 411.953C277.71 412.671 276.971 413.303 276.162 413.834L275.892 414.015L275.876 413.687C275.863 413.405 275.856 413.124 275.856 412.853C275.854 411.26 276.072 409.676 276.501 408.145C278.459 401.191 278.794 393.717 277.495 385.932C277.273 384.597 277.161 383.247 277.161 381.894C277.163 376.176 279.177 370.653 282.844 366.313C286.51 361.973 291.59 359.1 297.172 358.207C302.755 357.315 308.476 358.462 313.311 361.443C318.147 364.424 321.781 369.044 323.562 374.476L323.616 374.642L323.457 374.706C322.257 375.216 320.985 375.531 319.687 375.639C321.059 375.963 322.466 376.104 323.872 376.06L324.021 376.055L324.057 376.201C324.529 378.116 324.767 380.081 324.767 382.052L324.766 382.266C324.762 383.775 325.072 385.27 325.677 386.653C326.282 388.035 327.168 389.274 328.278 390.289C330.08 391.953 331.506 393.991 332.457 396.262C333.408 398.533 333.862 400.984 333.788 403.446C333.713 405.909 333.112 408.323 332.025 410.525C330.938 412.726 329.392 414.661 327.493 416.198L327.405 416.27L327.302 416.222C325.129 415.218 323.546 414.127 322.388 412.827C323.16 414.493 324.199 416.019 325.463 417.342L325.627 417.513L325.424 417.632C322.845 419.144 319.912 419.935 316.926 419.924L316.841 419.924C316.81 419.923 316.78 419.923 316.75 419.923C314.545 419.892 312.357 420.307 310.315 421.143C308.273 421.979 306.418 423.219 304.859 424.791C303.282 426.428 301.397 427.729 299.315 428.618C297.232 429.507 294.993 429.965 292.729 429.967Z" fill="#E4E4E4"/>
<path d="M286.761 456.823C286.688 456.823 286.617 456.796 286.562 456.747C286.506 456.698 286.47 456.631 286.46 456.558C286.447 456.466 285.179 447.222 286.316 434.946C287.366 423.609 290.739 407.285 300.849 393.904C300.873 393.872 300.903 393.845 300.938 393.824C300.972 393.804 301.01 393.791 301.05 393.786C301.09 393.78 301.13 393.783 301.169 393.793C301.207 393.804 301.244 393.822 301.276 393.847C301.307 393.871 301.334 393.902 301.354 393.937C301.374 393.972 301.388 394.011 301.393 394.051C301.398 394.091 301.396 394.132 301.385 394.171C301.375 394.21 301.357 394.246 301.333 394.278C291.311 407.545 287.965 423.748 286.922 435.005C285.792 447.21 287.05 456.382 287.063 456.473C287.069 456.516 287.066 456.561 287.053 456.603C287.041 456.645 287.02 456.685 286.991 456.718C286.962 456.751 286.927 456.778 286.887 456.796C286.848 456.814 286.805 456.823 286.761 456.823Z" fill="#3F3D56"/>
<path d="M291.811 411.612C291.747 411.612 291.684 411.591 291.632 411.553C291.58 411.515 291.541 411.461 291.521 411.399C291.501 411.337 291.501 411.27 291.521 411.208C291.541 411.147 291.58 411.093 291.632 411.055C294.512 409.093 297.624 407.501 300.896 406.317C306.008 404.442 313.781 402.753 321.783 405.354C321.821 405.367 321.857 405.387 321.888 405.413C321.918 405.439 321.944 405.471 321.962 405.507C321.98 405.543 321.992 405.582 321.995 405.622C321.999 405.663 321.994 405.703 321.982 405.742C321.97 405.781 321.95 405.816 321.924 405.847C321.899 405.878 321.867 405.903 321.831 405.922C321.796 405.94 321.757 405.951 321.717 405.955C321.677 405.958 321.637 405.953 321.599 405.94C313.76 403.392 306.128 405.054 301.106 406.896C297.886 408.06 294.824 409.625 291.99 411.554C291.938 411.592 291.875 411.613 291.811 411.612Z" fill="#3F3D56"/>
<path d="M324.448 398.946C324.8 398.85 325.126 398.677 325.404 398.44C325.682 398.203 325.905 397.907 326.058 397.572C326.21 397.238 326.288 396.874 326.285 396.505C326.283 396.137 326.201 395.773 326.045 395.44L331.416 377.749L327.464 376.944L322.552 394.286C322.016 394.586 321.609 395.075 321.407 395.66C321.205 396.245 321.222 396.886 321.456 397.46C321.69 398.035 322.123 398.503 322.675 398.777C323.226 399.051 323.857 399.111 324.448 398.946Z" fill="#FFB6B6"/>
<path d="M331.729 372.576C331.158 372.346 330.531 372.305 329.937 372.46L329.937 372.464C329.737 372.512 329.543 372.584 329.361 372.678C329.16 372.777 328.972 372.901 328.802 373.047C328.434 373.355 328.149 373.752 327.975 374.203L325.357 378.806C325.282 378.937 325.236 379.082 325.222 379.233C325.209 379.384 325.228 379.536 325.278 379.679C325.327 379.822 325.406 379.953 325.51 380.063C325.614 380.173 325.74 380.259 325.88 380.315L326.446 380.54L329.133 381.616L330.123 382.015L330.79 382.282C330.93 382.338 331.079 382.363 331.229 382.355C331.379 382.347 331.525 382.307 331.657 382.237C331.79 382.166 331.906 382.068 331.997 381.948C332.088 381.828 332.153 381.69 332.186 381.542L333.368 376.38C333.648 375.657 333.632 374.851 333.325 374.138C333.017 373.425 332.443 372.863 331.729 372.576Z" fill="#3F3D56"/>
<path d="M339.522 452.288L342.258 452.297L343.559 441.633L339.521 441.62L339.522 452.288Z" fill="#FFB6B6"/>
<path d="M338.079 457.075L340.041 457.081L340.391 455.21L341.288 457.086L346.491 457.103C346.74 457.104 346.983 457.024 347.184 456.875C347.385 456.726 347.534 456.517 347.608 456.276C347.682 456.036 347.678 455.777 347.597 455.538C347.515 455.3 347.361 455.094 347.155 454.95L343 452.034L343 450.141L338.63 450.391L338.079 457.075Z" fill="#2F2E41"/>
<path d="M312.918 446.712L315.271 448.13L321.772 439.648L318.299 437.554L312.918 446.712Z" fill="#FFB6B6"/>
<path d="M309.258 450.077L310.946 451.094L312.192 449.668L312.018 451.741L316.494 454.439C316.709 454.568 316.958 454.625 317.206 454.601C317.454 454.577 317.688 454.473 317.874 454.305C318.059 454.137 318.186 453.913 318.236 453.666C318.286 453.419 318.257 453.162 318.153 452.933L316.043 448.288L316.998 446.663L313.105 444.623L309.258 450.077Z" fill="#2F2E41"/>
<path d="M340.737 384.083L342.067 392.655L329.438 392.781L331.099 384.555L340.737 384.083Z" fill="#FFB6B6"/>
<path d="M342.116 392.547L345.724 401.403L345.989 425.056L342.913 447.629L339.506 447.617L338.109 425.398L334.674 410.187L331.29 426.073L320.765 441.599L315.592 441.582L325.1 424.466L326.199 405.791C326.199 405.791 325.513 397.864 329.023 393.2L329.877 390.707L342.116 392.547Z" fill="#2F2E41"/>
<path d="M342.289 376.197C342.282 376.12 342.271 376.039 342.256 375.962C341.983 374.113 340.997 372.445 339.513 371.325C338.029 370.205 336.169 369.723 334.339 369.985C332.621 370.24 331.056 371.12 329.937 372.46L329.937 372.464C329.879 372.533 329.825 372.606 329.77 372.68C329.672 372.804 329.582 372.936 329.495 373.067C328.709 374.265 328.304 375.679 328.335 377.118L328.335 377.122C328.346 377.677 328.423 378.229 328.563 378.765C328.805 379.704 328.995 380.656 329.133 381.616C329.227 382.225 329.3 382.823 329.354 383.406C329.387 383.699 329.412 383.989 329.434 384.272L329.434 384.275C329.543 385.673 329.579 386.927 329.612 387.898C329.627 388.426 329.641 388.866 329.667 389.204C329.667 389.226 329.67 389.248 329.674 389.27C329.702 389.496 329.798 389.709 329.95 389.879C329.968 389.903 329.989 389.925 330.011 389.945C330.172 390.092 330.367 390.196 330.577 390.248C330.65 390.263 330.724 390.271 330.798 390.271L330.82 390.271L332.934 389.281L334.602 388.501L340.263 385.851C340.495 385.847 340.72 385.772 340.908 385.635C341.096 385.498 341.238 385.306 341.314 385.085L341.314 385.081C341.322 385.052 341.333 385.022 341.34 384.99C341.644 383.777 342.185 382.477 342.377 380.384C342.402 380.084 342.424 379.772 342.434 379.439L342.434 379.435C342.466 378.354 342.418 377.271 342.289 376.197Z" fill="#3F3D56"/>
<path d="M334.426 368.826C337.376 368.836 339.766 366.427 339.766 363.445C339.765 360.464 337.374 358.039 334.425 358.029C331.476 358.019 329.086 360.428 329.086 363.41C329.087 366.391 331.477 368.816 334.426 368.826Z" fill="#FFB6B6"/>
<path d="M328.726 371.8C327.601 371.797 326.523 372.246 325.727 373.048C324.932 373.849 324.485 374.938 324.483 376.075L324.484 384.966C324.484 385.966 324.829 386.935 325.46 387.707C326.092 388.478 326.969 389.003 327.941 389.191L327.944 389.191C328.202 389.24 328.465 389.266 328.727 389.267L334.602 389.286L334.601 371.819L328.726 371.8Z" fill="#0B4E17"/>
<path d="M328.802 372.676L328.803 379.162C328.803 379.361 328.881 379.551 329.019 379.692C329.158 379.832 329.346 379.912 329.543 379.913C329.739 379.913 329.927 379.835 330.066 379.695C330.204 379.555 330.282 379.365 330.282 379.167L330.282 372.681L328.802 372.676Z" fill="#3F3D56"/>
<path d="M332.063 383.415L327.762 383.401C327.64 383.4 327.518 383.425 327.405 383.472C327.292 383.519 327.189 383.588 327.102 383.676C327.016 383.764 326.947 383.868 326.9 383.982C326.854 384.097 326.83 384.22 326.83 384.344L326.831 386.943C326.83 387.193 326.928 387.434 327.103 387.612C327.278 387.79 327.515 387.891 327.763 387.892L332.064 387.906C332.312 387.907 332.549 387.808 332.725 387.631C332.9 387.454 332.999 387.214 332.999 386.964L332.999 384.364C332.999 384.24 332.975 384.117 332.928 384.002C332.881 383.887 332.812 383.782 332.725 383.694C332.638 383.606 332.535 383.536 332.421 383.488C332.308 383.44 332.186 383.416 332.063 383.415Z" fill="#3F3D56"/>
<path d="M340.008 382.619C341.181 381.118 341.8 379.25 341.759 377.334C341.759 373.482 339.489 370.34 336.7 370.331C335.202 370.326 333.791 371.226 332.829 372.801L333.249 373.064C334.119 371.64 335.377 370.825 336.7 370.83C339.217 370.838 341.265 373.755 341.266 377.332C341.307 379.13 340.729 380.884 339.632 382.295L340.008 382.619Z" fill="#0B4E17"/>
<path d="M351.646 395.702C351.807 395.372 351.895 395.01 351.903 394.642C351.911 394.274 351.839 393.908 351.692 393.57C351.545 393.232 351.327 392.931 351.053 392.687C350.778 392.444 350.455 392.264 350.105 392.16L340.554 376.32L337.348 378.775L346.943 394.035C346.812 394.641 346.904 395.275 347.204 395.817C347.504 396.359 347.99 396.772 348.569 396.978C349.149 397.183 349.782 397.167 350.349 396.932C350.916 396.697 351.378 396.259 351.646 395.702Z" fill="#FFB6B6"/>
<path d="M343.87 378.259L342.256 375.962L341.393 374.735L340.831 373.933C340.655 373.581 340.409 373.268 340.109 373.014C339.598 372.58 338.954 372.336 338.288 372.325C337.621 372.314 336.971 372.535 336.448 372.952C335.925 373.368 335.561 373.955 335.417 374.613C335.272 375.271 335.357 375.96 335.656 376.563L337.332 381.61C337.381 381.754 337.459 381.886 337.562 381.996C337.665 382.107 337.79 382.194 337.929 382.251C338.068 382.309 338.217 382.335 338.367 382.329C338.517 382.323 338.664 382.285 338.797 382.216L339.338 381.94L340.19 381.502L340.955 381.113L340.959 381.113L342.377 380.384L342.859 380.14L343.497 379.812C343.63 379.743 343.747 379.646 343.84 379.527C343.932 379.408 343.999 379.27 344.034 379.123C344.07 378.976 344.073 378.822 344.045 378.673C344.017 378.524 343.957 378.383 343.87 378.259Z" fill="#3F3D56"/>
<path d="M596.217 458.292L276.193 457.227C276.15 457.227 276.106 457.218 276.065 457.201C276.025 457.184 275.988 457.159 275.957 457.127C275.926 457.096 275.901 457.059 275.884 457.018C275.868 456.977 275.859 456.933 275.859 456.888C275.859 456.844 275.868 456.8 275.884 456.759C275.901 456.718 275.926 456.681 275.957 456.65C275.988 456.619 276.025 456.594 276.065 456.577C276.106 456.561 276.149 456.552 276.193 456.552L596.217 457.618C596.305 457.618 596.39 457.654 596.452 457.717C596.515 457.781 596.55 457.866 596.55 457.956C596.55 458.045 596.515 458.131 596.452 458.194C596.39 458.257 596.305 458.292 596.217 458.292Z" fill="#CCCCCC"/>
<path d="M445.467 429.534C444.065 426.905 443.869 423.465 445.59 421.048C446.441 424.178 448.36 426.906 451.005 428.75C452.028 429.458 453.238 430.137 453.588 431.338C453.772 432.104 453.659 432.91 453.271 433.592C452.885 434.265 452.414 434.884 451.871 435.436L451.822 435.623C449.284 434.094 446.869 432.163 445.467 429.534Z" fill="#E6E6E6"/>
<path d="M359.514 362.886C358.112 360.257 357.916 356.816 359.637 354.4C360.488 357.53 362.407 360.258 365.052 362.102C366.075 362.81 367.285 363.489 367.635 364.69C367.819 365.455 367.706 366.262 367.318 366.944C366.932 367.616 366.461 368.236 365.918 368.787L365.869 368.975C363.331 367.446 360.916 365.515 359.514 362.886Z" fill="#E6E6E6"/>
<path d="M331.169 359.012L331.169 359.016C331.169 359.251 331.14 359.485 331.081 359.712C331.071 359.751 331.06 359.793 331.047 359.833L331.047 359.835C330.921 360.24 330.704 360.61 330.413 360.916C330.122 361.221 329.764 361.454 329.368 361.597C329.31 361.619 329.25 361.638 329.19 361.655C329.064 361.691 328.934 361.718 328.804 361.733C328.686 361.75 328.568 361.757 328.449 361.757C328.357 361.757 328.264 361.752 328.172 361.742C327.956 361.72 327.743 361.67 327.54 361.594C327.508 361.585 327.476 361.573 327.446 361.56C327.43 361.554 327.415 361.548 327.401 361.541C327.06 361.396 326.753 361.182 326.496 360.913C326.239 360.645 326.039 360.326 325.908 359.977C325.776 359.628 325.716 359.256 325.731 358.884C325.746 358.511 325.836 358.146 325.995 357.81L325.997 357.808C326.131 357.526 326.311 357.27 326.532 357.051C327.041 356.539 327.73 356.254 328.449 356.257C328.484 356.257 328.52 356.258 328.556 356.261C328.97 356.28 329.374 356.393 329.739 356.593C330.103 356.793 330.419 357.075 330.66 357.415C330.87 357.71 331.019 358.043 331.099 358.396C331.145 358.598 331.169 358.805 331.169 359.012Z" fill="#2F2E41"/>
<path d="M328.03 357.334C327.791 356.422 327.274 355.608 326.553 355.008C325.832 354.408 324.943 354.052 324.012 353.991C323.082 353.93 322.156 354.166 321.368 354.666C320.579 355.167 319.967 355.906 319.619 356.779C319.035 358.242 319.249 359.906 318.899 361.444C318.547 362.841 317.75 364.081 316.632 364.974C315.514 365.867 314.136 366.363 312.709 366.387L318.003 368.561C318.568 368.855 319.202 368.987 319.835 368.943C320.756 368.788 321.397 367.9 321.656 366.994C321.916 366.087 321.895 365.124 322.059 364.194C322.272 363.053 322.757 361.982 323.473 361.074C324.188 360.167 325.113 359.45 326.165 358.987C326.761 358.731 327.424 358.539 327.845 358.043C328.267 357.546 328.243 356.607 327.632 356.386" fill="#2F2E41"/>
<path d="M336.608 357.384C335.89 355.795 333.995 356.112 332.282 356.315C331.427 356.446 330.617 356.786 329.922 357.305C329.227 357.824 328.668 358.507 328.294 359.295C327.562 360.892 327.422 362.703 327.9 364.399C328.156 365.555 328.768 366.599 329.647 367.383C330.552 368.121 334.805 369.875 335.159 368.378C334.716 370.331 335.607 370.028 336.925 371.531C337.607 369.46 337.927 365.554 338.61 363.483L338.918 362.548C339.134 361.891 339.351 361.232 339.508 360.558C339.704 359.711 339.78 358.738 339.259 358.043C338.738 357.348 337.425 357.316 337.162 358.145" fill="#2F2E41"/>
<path d="M335.749 363.983L335.521 362.513C335.676 360.687 335.422 357.78 336.608 357.384L337.334 358.12C336.875 358.273 336.003 361.002 335.749 363.983Z" fill="#FF6584"/>
</g>
</g>
<defs>
<filter id="filter0_f_110_299" x="-4" y="-3.41382" width="905.659" height="785.424" filterUnits="userSpaceOnUse" color-interpolation-filters="sRGB">
<feFlood flood-opacity="0" result="BackgroundImageFix"/>
<feBlend mode="normal" in="SourceGraphic" in2="BackgroundImageFix" result="shape"/>
<feGaussianBlur stdDeviation="2" result="effect1_foregroundBlur_110_299"/>
</filter>
<filter id="filter1_f_110_299" x="52.032" y="-27.2712" width="789.936" height="754.9" filterUnits="userSpaceOnUse" color-interpolation-filters="sRGB">
<feFlood flood-opacity="0" result="BackgroundImageFix"/>
<feBlend mode="normal" in="SourceGraphic" in2="BackgroundImageFix" result="shape"/>
<feGaussianBlur stdDeviation="90" result="effect1_foregroundBlur_110_299"/>
</filter>
<clipPath id="clip0_110_299">
<rect width="797.094" height="648.868" fill="white" transform="translate(0 139) rotate(-10)"/>
</clipPath>
<clipPath id="clip1_110_299">
<rect width="338.363" height="233.591" fill="white" transform="matrix(0.999994 0.00332879 9.37756e-05 1 275.135 223.632)"/>
</clipPath>
</defs>
</svg>
