<svg width="786" height="757" viewBox="0 0 786 757" fill="none" xmlns="http://www.w3.org/2000/svg">
<g clip-path="url(#clip0_110_299)" filter="url(#filter0_f_110_299)">
<g filter="url(#filter1_f_110_299)">
<path d="M548.311 286.242C589.446 368.042 585.891 460.022 538.521 504.193C491.151 548.364 399.63 544.785 327.332 510.542C254.698 476.358 201.063 412.207 205.632 331.878C210.594 251.809 273.479 155.939 347.722 144.163C421.91 132.067 507.455 204.064 548.311 286.242Z" fill="#DAA06D"/>
</g>
<g clip-path="url(#clip1_110_299)">
<path d="M326.379 249.555C335.179 249.834 342.111 241.744 341.863 231.487C341.614 221.23 334.279 212.689 325.479 212.41C316.679 212.131 309.747 220.22 309.995 230.478C310.244 240.735 317.579 249.276 326.379 249.555Z" fill="#FF6584"/>
<path d="M354.338 217.644C346.586 216.182 337.888 220.768 336.099 229.483C335.557 227.906 334.608 226.544 333.389 225.592C332.169 224.641 330.743 224.15 329.316 224.19C327.889 224.23 326.536 224.8 325.45 225.816C324.365 226.832 323.605 228.243 323.279 229.844L324.181 230.61C340.831 235.306 357.959 235.758 374.369 231.936C368.838 225.186 362.09 219.105 354.338 217.644Z" fill="#F0F0F0"/>
<path d="M321.821 241.358C314.069 239.897 305.371 244.482 303.582 253.197C303.04 251.62 302.091 250.258 300.872 249.306C299.652 248.355 298.226 247.864 296.799 247.904C295.372 247.944 294.019 248.514 292.933 249.53C291.848 250.546 291.088 251.957 290.762 253.558L291.664 254.324C308.314 259.02 325.442 259.472 341.852 255.65C336.321 248.9 329.573 242.819 321.821 241.358Z" fill="#F0F0F0"/>
<path d="M381.975 292.893C379.239 287.771 376.011 282.293 371.121 280.494C365.458 278.411 359.779 282.013 354.975 285.593C340.609 296.3 326.806 307.959 313.631 320.518L313.65 320.714C324.132 320.202 334.614 319.691 345.096 319.179C352.67 318.81 360.502 318.364 367.106 314.392C369.612 312.885 372.041 310.843 374.921 310.787C378.499 310.717 381.693 313.732 384.222 316.856C399.18 335.34 404.049 363.035 420.724 379.386C409.736 349.531 396.779 320.61 381.975 292.893Z" fill="#F2F2F2"/>
<path d="M474.936 448.592C473.273 446.178 472.603 445.603 470.962 443.168C457.593 423.316 444.984 402.833 433.134 381.717C425.085 367.376 417.411 352.776 410.113 337.918C406.639 330.854 403.255 323.738 399.959 316.571C397.402 311.013 394.898 305.425 392.447 299.805C391.747 298.2 391.065 296.588 390.385 294.973C388.786 291.174 387.213 287.358 385.533 283.608C383.619 279.333 381.306 274.842 377.91 271.904C376.363 270.514 374.533 269.644 372.633 269.397C369.919 269.107 367.451 270.332 365.136 271.681C348.2 281.584 332.424 294.174 318.23 308.618C303.998 323.094 291.364 339.558 280.582 357.674C280.253 358.235 279.427 357.663 279.76 357.099C281.071 354.892 282.409 352.709 283.775 350.552C300.762 323.75 321.833 300.907 346.026 283.066C350.096 280.065 354.247 277.214 358.481 274.512C360.614 273.15 362.758 271.806 364.94 270.55C367.08 269.319 369.358 268.223 371.837 268.258C380.275 268.373 384.916 279.655 388.1 287.248C389.101 289.638 390.113 292.02 391.136 294.396C395.004 303.416 399.011 312.359 403.156 321.224C405.714 326.698 408.325 332.142 410.988 337.556C419.276 354.416 428.052 370.955 437.315 387.173C449.587 408.656 461.704 427.675 475.579 447.841C475.961 448.399 475.321 449.157 474.936 448.592Z" fill="#E4E4E4"/>
<path d="M317.262 303.089C316.756 302.436 316.253 301.783 315.744 301.131C311.73 295.989 307.433 290.897 302.017 287.85C299.434 286.355 296.633 285.515 293.809 285.389C290.892 285.307 288.061 286.109 285.395 287.273C284.135 287.826 282.904 288.46 281.694 289.139C280.311 289.917 278.954 290.751 277.605 291.593C275.07 293.172 272.571 294.825 270.107 296.552C265.205 299.988 260.465 303.703 255.889 307.698C253.516 309.77 251.196 311.914 248.927 314.13C246.816 316.188 244.751 318.304 242.731 320.48C242.299 320.943 241.618 320.15 242.05 319.687C242.582 319.11 243.121 318.538 243.66 317.973C245.182 316.376 246.73 314.812 248.304 313.28C251.174 310.482 254.122 307.798 257.15 305.227C261.857 301.228 266.737 297.516 271.79 294.09C274.314 292.38 276.876 290.746 279.475 289.189C280.26 288.719 281.055 288.26 281.859 287.827C283.683 286.798 285.583 285.946 287.541 285.281C290.315 284.314 293.268 284.069 296.2 284.562C299.032 285.13 301.777 286.312 304.288 288.046C309.62 291.632 313.819 297.049 317.906 302.334C318.318 302.871 317.678 303.626 317.262 303.089Z" fill="#E4E4E4"/>
<path d="M426.066 358.498L438.514 353.535L444.694 351.07C446.707 350.268 448.712 349.345 450.799 348.791C452.644 348.301 454.531 348.271 456.381 349.05C458.015 349.799 459.521 350.915 460.81 352.333C462.126 353.75 463.355 355.273 464.487 356.89C465.893 358.837 467.279 360.804 468.671 362.765C474.416 370.857 480.126 378.982 485.8 387.14C491.473 395.299 497.111 403.49 502.714 411.713C508.33 419.957 513.909 428.234 519.452 436.543C520.131 437.56 520.81 438.579 521.488 439.598C521.862 440.161 522.663 439.643 522.284 439.072C516.699 430.68 511.078 422.32 505.42 413.993C499.748 405.646 494.04 397.332 488.294 389.052C482.548 380.772 476.766 372.526 470.947 364.314C469.497 362.268 468.045 360.225 466.591 358.183C465.365 356.461 464.151 354.721 462.812 353.112C460.355 350.158 457.31 347.52 453.738 347.338C451.638 347.231 449.625 347.943 447.695 348.703C445.614 349.524 443.538 350.36 441.46 351.189L428.925 356.187L425.792 357.437C425.236 357.659 425.504 358.723 426.066 358.498Z" fill="#E4E4E4"/>
<path d="M300.515 294.112C294.031 290.081 285.864 290.572 280.106 295.169C291.364 297.777 302.517 301.142 313.509 305.248C308.908 302.013 305.249 297.056 300.515 294.112Z" fill="#F2F2F2"/>
<path d="M280.043 295.154L278.841 296.281C279.247 295.886 279.671 295.517 280.106 295.169C280.085 295.164 280.064 295.159 280.043 295.154Z" fill="#F2F2F2"/>
<path d="M460.514 359.643C459.233 357.847 457.85 355.965 455.981 355.193L454.254 355.218C468.072 382.742 486.421 406.992 508.175 426.478C492.288 404.2 476.401 381.921 460.514 359.643Z" fill="#F2F2F2"/>
<path d="M333.423 424.178C333.968 417.593 337.323 411.194 342.677 409.215C340.71 415.948 340.891 423.409 343.189 430.277C344.083 432.922 345.309 435.771 344.592 438.386C344.145 440.013 342.986 441.232 341.676 441.975C340.366 442.719 338.899 443.047 337.451 443.368L337.171 443.635C334.71 437.474 332.878 430.763 333.423 424.178Z" fill="#F0F0F0"/>
<path d="M342.734 409.342C339.685 413.354 337.854 418.455 337.499 423.921C337.405 425.095 337.471 426.29 337.695 427.46C337.945 428.594 338.447 429.647 339.15 430.508C339.792 431.325 340.526 432.08 340.995 433.054C341.229 433.556 341.371 434.105 341.414 434.664C341.456 435.223 341.396 435.779 341.24 436.296C340.878 437.599 340.128 438.647 339.364 439.639C338.514 440.742 337.616 441.87 337.28 443.356C337.239 443.536 336.998 443.436 337.039 443.257C337.624 440.671 339.759 439.259 340.737 436.944C341.193 435.864 341.365 434.599 340.884 433.428C340.464 432.404 339.708 431.626 339.052 430.804C338.356 429.975 337.836 428.971 337.537 427.88C337.263 426.723 337.157 425.531 337.225 424.356C337.341 421.703 337.816 419.111 338.632 416.676C339.549 413.889 340.879 411.332 342.562 409.117C342.666 408.98 342.837 409.206 342.734 409.342Z" fill="white"/>
<path d="M337.524 422.148C336.741 421.903 336.042 421.346 335.553 420.576C335.065 419.806 334.817 418.874 334.855 417.945C334.864 417.758 335.115 417.78 335.107 417.968C335.07 418.833 335.301 419.701 335.757 420.417C336.214 421.133 336.866 421.649 337.596 421.872C337.755 421.92 337.682 422.196 337.524 422.148Z" fill="white"/>
<path d="M338.78 430.14C340.161 429.207 341.16 427.68 341.579 425.865C341.62 425.686 341.861 425.785 341.82 425.965C341.382 427.853 340.339 429.438 338.899 430.406C338.762 430.498 338.643 430.232 338.78 430.14Z" fill="white"/>
<path d="M339.79 414.174C340.079 414.342 340.396 414.425 340.712 414.416C341.027 414.407 341.332 414.307 341.597 414.125C341.734 414.03 341.852 414.297 341.717 414.39C341.422 414.59 341.086 414.701 340.738 414.711C340.389 414.722 340.039 414.632 339.718 414.45C339.686 414.436 339.66 414.409 339.644 414.374C339.629 414.339 339.625 414.299 339.633 414.263C339.643 414.226 339.665 414.196 339.694 414.18C339.723 414.163 339.758 414.161 339.79 414.174Z" fill="white"/>
<path d="M359.441 421.539C359.358 421.6 359.274 421.662 359.191 421.726C358.074 422.563 357.022 423.508 356.045 424.552C355.968 424.631 355.892 424.713 355.817 424.794C353.489 427.34 351.612 430.395 350.28 433.803C349.751 435.159 349.314 436.567 348.972 438.013C348.5 440.01 348.127 442.228 347.137 443.842C347.035 444.012 346.924 444.174 346.805 444.326L337.492 444.031C337.47 444.018 337.449 444.008 337.427 443.995L337.056 444.003C337.069 443.926 337.084 443.848 337.097 443.771C337.105 443.727 337.114 443.683 337.122 443.638C337.127 443.609 337.133 443.579 337.136 443.552C337.138 443.543 337.14 443.533 337.142 443.525C337.146 443.498 337.152 443.474 337.155 443.449C337.238 443.009 337.323 442.568 337.412 442.128C337.412 442.126 337.412 442.126 337.414 442.123C338.06 438.76 339.05 435.52 340.365 432.471C340.405 432.381 340.445 432.288 340.49 432.198C341.1 430.85 341.807 429.568 342.603 428.365C343.041 427.708 343.508 427.08 344.003 426.482C345.285 424.939 346.778 423.655 348.429 422.677C351.719 420.727 355.567 420.062 359.167 421.431C359.259 421.466 359.349 421.501 359.441 421.539Z" fill="#F0F0F0"/>
<path d="M359.424 421.676C354.812 422.602 350.65 425.218 347.527 429.151C346.841 429.983 346.278 430.943 345.859 431.996C345.48 433.039 345.353 434.197 345.492 435.35C345.604 436.426 345.824 437.519 345.71 438.594C345.645 439.143 345.479 439.663 345.225 440.12C344.971 440.577 344.634 440.961 344.236 441.247C343.261 441.989 342.096 442.264 340.946 442.486C339.669 442.732 338.339 442.964 337.29 443.865C337.163 443.974 337.014 443.728 337.141 443.619C338.965 442.052 341.472 442.473 343.483 441.389C344.421 440.884 345.219 440.037 345.425 438.803C345.604 437.724 345.378 436.597 345.257 435.507C345.108 434.384 345.194 433.251 345.51 432.206C345.881 431.128 346.41 430.142 347.074 429.29C348.543 427.342 350.279 425.693 352.217 424.403C354.422 422.916 356.851 421.895 359.397 421.383C359.555 421.351 359.58 421.644 359.424 421.676Z" fill="white"/>
<path d="M348.465 427.811C347.94 427.073 347.647 426.156 347.639 425.224C347.63 424.291 347.907 423.404 348.419 422.72C348.523 422.582 348.721 422.777 348.617 422.915C348.139 423.55 347.881 424.377 347.891 425.245C347.9 426.113 348.176 426.967 348.668 427.65C348.775 427.799 348.571 427.959 348.465 427.811Z" fill="white"/>
<path d="M345.375 434.808C347.007 435.065 348.628 434.6 349.914 433.505C350.042 433.397 350.191 433.643 350.064 433.751C348.723 434.887 347.035 435.367 345.337 435.096C345.175 435.07 345.214 434.782 345.375 434.808Z" fill="white"/>
<path d="M354.475 423.303C354.629 423.635 354.85 423.921 355.116 424.136C355.383 424.351 355.688 424.489 356.004 424.536C356.166 424.559 356.127 424.847 355.966 424.823C355.618 424.769 355.281 424.617 354.985 424.38C354.69 424.143 354.445 423.828 354.272 423.464C354.253 423.431 354.245 423.392 354.25 423.354C354.255 423.316 354.273 423.283 354.299 423.261C354.326 423.24 354.359 423.232 354.392 423.24C354.425 423.248 354.455 423.271 354.475 423.303Z" fill="white"/>
<path d="M400.263 390.422C395.41 378.5 395.216 363.577 402.065 353.864C404.77 367.72 411.547 380.284 421.195 389.332C424.927 392.807 429.366 396.239 430.491 401.565C431.191 404.879 430.396 408.335 428.946 411.157C427.495 413.978 425.433 416.272 423.394 418.532L423.178 419.32C413.884 411.674 405.116 402.343 400.263 390.422Z" fill="#F0F0F0"/>
<path d="M402.266 354.014C400.874 364.486 402.378 375.387 406.564 385.168C407.433 387.29 408.578 389.257 409.954 390.998C411.34 392.645 413.058 393.854 414.932 394.499C416.67 395.14 418.501 395.566 420.099 396.681C420.91 397.265 421.615 398.036 422.168 398.943C422.722 399.851 423.111 400.873 423.309 401.945C423.863 404.604 423.575 407.283 423.213 409.887C422.812 412.778 422.356 415.771 423.11 418.714C423.202 419.07 422.729 419.184 422.637 418.828C421.326 413.708 423.515 408.768 423.068 403.648C422.86 401.259 422.035 398.889 420.247 397.452C418.684 396.195 416.797 395.755 415.032 395.123C413.198 394.525 411.493 393.42 410.066 391.904C408.621 390.246 407.417 388.329 406.503 386.235C404.382 381.555 402.888 376.556 402.076 371.42C401.122 365.563 401.027 359.614 401.794 353.831C401.842 353.473 402.313 353.658 402.266 354.014Z" fill="white"/>
<path d="M405.061 382.101C403.595 382.607 401.993 382.478 400.541 381.737C399.089 380.996 397.882 379.691 397.136 378.056C396.986 377.724 397.409 377.465 397.559 377.797C398.251 379.321 399.376 380.536 400.729 381.223C402.081 381.91 403.574 382.023 404.937 381.542C405.233 381.438 405.356 381.997 405.061 382.101Z" fill="white"/>
<path d="M414.02 394.307C415.419 391.077 415.692 387.282 414.783 383.679C414.693 383.323 415.166 383.209 415.256 383.565C416.196 387.316 415.905 391.264 414.442 394.621C414.303 394.941 413.881 394.625 414.02 394.307Z" fill="white"/>
<path d="M401.755 365.768C402.364 365.713 402.943 365.481 403.441 365.093C403.938 364.706 404.338 364.174 404.605 363.548C404.741 363.226 405.162 363.541 405.027 363.861C404.73 364.552 404.287 365.138 403.738 365.568C403.19 365.997 402.551 366.258 401.879 366.326C401.817 366.339 401.751 366.323 401.696 366.282C401.64 366.241 401.599 366.177 401.581 366.104C401.565 366.03 401.574 365.954 401.606 365.891C401.639 365.828 401.692 365.784 401.755 365.768Z" fill="white"/>
<path d="M439.61 355.169C439.53 355.373 439.45 355.577 439.372 355.786C438.312 358.538 437.449 361.399 436.794 364.341C436.74 364.567 436.689 364.798 436.641 365.026C435.128 372.136 434.779 379.585 435.61 386.995C435.944 389.944 436.468 392.871 437.178 395.751C438.159 399.729 439.49 403.968 439.309 407.903C439.294 408.314 439.257 408.722 439.198 409.125L424.036 419.62C423.991 419.623 423.947 419.63 423.901 419.633L423.314 420.086C423.268 419.94 423.224 419.787 423.179 419.641C423.152 419.556 423.129 419.469 423.102 419.385C423.085 419.327 423.069 419.27 423.051 419.219C423.045 419.2 423.04 419.181 423.037 419.166C423.019 419.116 423.007 419.067 422.991 419.02C422.741 418.168 422.495 417.313 422.254 416.455C422.251 416.451 422.251 416.451 422.253 416.444C420.429 409.899 419.05 403.15 418.583 396.427C418.569 396.225 418.553 396.019 418.546 395.812C418.35 392.781 418.367 389.751 418.595 386.75C418.725 385.108 418.926 383.48 419.199 381.871C419.909 377.715 421.183 373.752 422.974 370.127C426.545 362.901 432.125 357.217 439.077 355.308C439.255 355.26 439.43 355.213 439.61 355.169Z" fill="#F0F0F0"/>
<path d="M439.701 355.424C433.126 362.459 428.738 371.855 427.159 382.28C426.785 384.514 426.719 386.824 426.964 389.123C427.264 391.357 428.068 393.49 429.293 395.3C430.407 397.012 431.71 398.624 432.462 400.6C432.835 401.617 433.023 402.703 433.013 403.786C433.004 404.869 432.799 405.925 432.41 406.884C431.495 409.308 429.869 411.155 428.221 412.893C426.392 414.823 424.464 416.792 423.569 419.573C423.46 419.91 423.008 419.665 423.116 419.329C424.674 414.489 429.051 412.249 431.328 408.018C432.39 406.044 432.93 403.651 432.187 401.295C431.537 399.235 430.194 397.571 429.054 395.848C427.838 394.101 426.991 392.057 426.588 389.894C426.244 387.611 426.233 385.298 426.556 383.053C427.213 377.982 428.557 373.108 430.539 368.608C432.775 363.456 435.773 358.838 439.404 354.953C439.629 354.713 439.924 355.186 439.701 355.424Z" fill="white"/>
<path d="M427.496 378.877C426.015 378.234 424.749 377.009 423.924 375.422C423.1 373.834 422.771 371.988 422.996 370.213C423.043 369.854 423.529 369.952 423.482 370.312C423.27 371.965 423.576 373.684 424.346 375.161C425.116 376.637 426.299 377.773 427.681 378.363C427.982 378.491 427.795 379.005 427.496 378.877Z" fill="white"/>
<path d="M428.634 394.512C431.469 393.024 433.659 390.313 434.767 386.918C434.876 386.581 435.329 386.826 435.219 387.162C434.06 390.692 431.776 393.508 428.823 395.049C428.541 395.196 428.354 394.658 428.634 394.512Z" fill="white"/>
<path d="M433.195 364.058C433.731 364.444 434.333 364.673 434.947 364.726C435.561 364.779 436.169 364.654 436.715 364.362C436.995 364.211 437.182 364.749 436.904 364.899C436.299 365.218 435.628 365.356 434.949 365.299C434.27 365.242 433.605 364.992 433.01 364.573C432.952 364.538 432.905 364.48 432.88 364.409C432.856 364.339 432.854 364.261 432.877 364.193C432.901 364.125 432.949 364.073 433.009 364.047C433.068 364.022 433.135 364.026 433.195 364.058Z" fill="white"/>
<path d="M470.496 406.273L487.478 391.466L496.175 401.594L468.451 423.247L470.496 406.273Z" fill="#3F3D56"/>
<path d="M455.336 448.046L395.975 446.165L397.866 438.368C410.638 433.332 403.106 421.399 415.207 414.634C444.806 398.088 455.164 346.243 450.267 325.463L469.918 325.117C469.918 325.117 499.268 415.916 455.336 448.046Z" fill="#3F3D56"/>
<path d="M505.118 412.689C503.389 414.451 501.146 415.404 498.786 415.381C496.427 415.358 494.104 414.359 492.232 412.562L492.192 412.524L492.19 412.466C492.145 411.502 491.993 410.542 491.738 409.61C491.742 410.275 491.675 410.934 491.537 411.57L491.493 411.785L491.356 411.62C491.237 411.478 491.122 411.334 491.014 411.192C490.379 410.358 489.841 409.431 489.416 408.438C487.385 403.776 484.506 399.647 480.991 396.356C480.363 395.755 479.776 395.096 479.237 394.387C476.959 391.39 475.627 387.603 475.479 383.705C475.332 379.806 476.379 376.051 478.433 373.111C480.486 370.171 483.413 368.238 486.688 367.66C489.963 367.081 493.373 367.893 496.307 369.951L496.397 370.014L496.354 370.119C496.039 370.917 495.616 371.645 495.099 372.277C495.82 371.839 496.483 371.29 497.072 370.644L497.135 370.576L497.209 370.636C498.175 371.431 499.061 372.355 499.847 373.388L499.932 373.501C500.532 374.294 501.262 374.94 502.074 375.396C502.886 375.853 503.762 376.11 504.646 376.151C506.087 376.225 507.514 376.661 508.83 377.43C510.146 378.2 511.319 379.283 512.268 380.607C513.218 381.93 513.921 383.462 514.329 385.097C514.737 386.732 514.842 388.431 514.634 390.078L514.625 390.154L514.561 390.175C513.453 390.588 512.27 390.723 511.088 390.572C512.085 391.103 513.141 391.442 514.215 391.576L514.353 391.594L514.313 391.746C513.803 393.681 512.852 395.394 511.559 396.71L511.522 396.748C511.509 396.761 511.496 396.774 511.483 396.788C510.518 397.748 509.739 398.934 509.191 400.277C508.643 401.619 508.337 403.091 508.291 404.605C508.263 406.161 507.968 407.678 507.423 409.066C506.878 410.454 506.095 411.686 505.118 412.689Z" fill="#0B4E17"/>
<path opacity="0.15" d="M506.844 409.009C506.836 409.427 506.808 409.843 506.762 410.256C507.692 408.546 508.202 406.555 508.242 404.484C508.247 404.167 508.268 403.851 508.299 403.538C507.394 405.149 506.891 407.039 506.844 409.009Z" fill="black"/>
<path opacity="0.15" d="M509.64 394.976C510.442 395.401 511.283 395.702 512.142 395.872C512.461 395.477 512.754 395.055 513.019 394.608C511.939 394.998 510.789 395.124 509.64 394.976Z" fill="black"/>
<path opacity="0.15" d="M513.205 391.273C513.317 392.281 513.318 393.294 513.207 394.288C513.66 393.464 514.015 392.568 514.264 391.624L514.304 391.472L514.166 391.455C513.844 391.413 513.523 391.352 513.205 391.273Z" fill="black"/>
<path opacity="0.15" d="M512.014 380.208C511.066 378.964 509.917 377.95 508.64 377.231C507.363 376.512 505.986 376.102 504.597 376.029C503.713 375.989 502.837 375.732 502.025 375.275C501.213 374.818 500.483 374.172 499.883 373.379L499.798 373.267C499.012 372.234 498.126 371.309 497.159 370.515L497.086 370.454L497.023 370.522C496.434 371.169 495.771 371.718 495.05 372.155C495.566 371.524 495.99 370.795 496.305 369.997L496.348 369.893L496.258 369.83C494.313 368.464 492.143 367.636 489.926 367.414C487.709 367.192 485.507 367.582 483.501 368.553C481.494 369.523 479.739 371.046 478.379 372.998C477.02 374.95 476.094 377.275 475.676 379.783C476.552 377.927 477.744 376.312 479.186 375.033C480.627 373.753 482.288 372.834 484.072 372.329C485.856 371.824 487.729 371.743 489.581 372.091C491.432 372.439 493.227 373.208 494.86 374.355L494.95 374.418L494.906 374.522C494.592 375.321 494.168 376.049 493.652 376.681C494.372 376.243 495.036 375.694 495.625 375.048L495.687 374.979L495.761 375.04C496.728 375.835 497.614 376.759 498.4 377.792L498.485 377.904C499.085 378.698 499.815 379.344 500.627 379.8C501.439 380.257 502.315 380.514 503.198 380.555C505.508 380.673 507.755 381.721 509.557 383.52C511.359 385.318 512.603 387.756 513.078 390.417C513.564 390.331 514.043 390.21 514.512 390.054L514.576 390.033L514.585 389.957C514.803 388.251 514.685 386.489 514.239 384.801C513.794 383.113 513.034 381.543 512.014 380.208Z" fill="black"/>
<path d="M531.856 332.995C532.07 341.856 529.581 350.345 524.832 356.952C520.082 363.559 513.38 367.855 505.916 369.077L505.758 369.102L505.633 368.979C503.54 366.927 501.243 365.186 498.798 363.799C500.189 365.29 501.423 366.969 502.472 368.796L502.829 369.406L502.213 369.421C501.682 369.435 501.154 369.433 500.643 369.417C497.644 369.325 494.648 368.748 491.739 367.703C478.527 362.941 464.434 361.751 449.852 364.168C447.352 364.58 444.815 364.747 442.267 364.666C417.285 363.875 396.386 339.535 395.68 310.41C395.398 299.305 398.129 288.574 403.486 279.746C408.843 270.917 416.552 264.443 425.513 261.245L425.822 261.135L425.953 261.493C426.985 264.186 427.654 267.028 427.936 269.914C428.463 266.89 428.645 263.776 428.477 260.652L428.459 260.322L428.732 260.251C432.309 259.318 435.995 258.907 439.707 259.025L440.109 259.04C442.952 259.14 445.749 258.54 448.316 257.28C450.882 256.02 453.162 254.128 455.007 251.727C458.032 247.827 461.783 244.784 466.003 242.809C470.223 240.834 474.811 239.973 479.452 240.286C484.093 240.599 488.676 242.078 492.887 244.622C497.097 247.165 500.835 250.713 503.842 255.02L503.982 255.219L503.898 255.445C502.139 260.207 500.179 263.655 497.801 266.146C500.891 264.533 503.702 262.318 506.119 259.592L506.431 259.24L506.667 259.697C509.669 265.512 511.335 272.068 511.493 278.694L511.497 278.883C511.499 278.95 511.5 279.017 511.502 279.084C511.747 289.22 515.343 298.934 521.383 305.765C524.56 309.362 527.123 313.623 528.921 318.299C530.72 322.975 531.717 327.971 531.856 332.995Z" fill="#0B4E17"/>
<g opacity="0.15">
<path d="M490.444 243.273C489.388 245.38 488.073 247.285 486.537 248.932C488.765 247.767 490.85 246.288 492.748 244.525C491.993 244.074 491.225 243.656 490.444 243.273Z" fill="black"/>
<path d="M510.119 288.551C511.914 290.582 513.516 292.831 514.896 295.256C512.784 290.151 511.626 284.633 511.502 279.084C511.5 279.017 511.499 278.95 511.497 278.884L511.493 278.695C511.335 272.068 509.669 265.512 506.667 259.697L506.431 259.24L506.119 259.592C504.396 261.531 502.472 263.214 500.387 264.606C501.154 273.739 504.625 282.338 510.119 288.551Z" fill="black"/>
<path d="M500.229 261.48L500.233 261.669C500.234 261.736 500.236 261.803 500.238 261.87C500.247 262.237 500.261 262.604 500.279 262.97C501.734 260.646 502.948 258.122 503.898 255.446L503.982 255.22L503.842 255.02C502.088 252.509 500.083 250.246 497.873 248.285C499.322 252.528 500.12 256.997 500.229 261.48Z" fill="black"/>
<path d="M521.383 305.766C519.795 303.965 518.375 301.974 517.148 299.83C519.38 305.125 520.557 310.883 520.586 316.653C520.616 322.423 519.497 328.048 517.318 333.088C515.139 338.128 511.959 342.446 508.026 345.704C504.094 348.961 499.516 351.069 494.652 351.863L494.494 351.888L494.369 351.765C492.276 349.713 489.979 347.971 487.534 346.584C488.925 348.076 490.159 349.755 491.208 351.582L491.565 352.192L490.949 352.207C490.418 352.221 489.89 352.219 489.379 352.203C486.38 352.111 483.383 351.534 480.475 350.488C467.263 345.726 453.17 344.537 438.588 346.954C436.088 347.366 433.55 347.533 431.003 347.452C419.899 347.11 409.066 342.007 400.578 333.118C404.469 342.277 410.452 350.102 417.831 355.687C425.211 361.271 433.684 364.385 442.267 364.667C444.815 364.747 447.352 364.581 449.852 364.168C464.434 361.752 478.527 362.941 491.739 367.703C494.648 368.748 497.644 369.325 500.643 369.417C501.154 369.433 501.682 369.435 502.213 369.422L502.829 369.407L502.472 368.797C501.423 366.97 500.189 365.291 498.798 363.799C501.243 365.186 503.54 366.927 505.633 368.98L505.758 369.103L505.916 369.077C511.757 368.125 517.166 365.283 521.539 360.867C525.912 356.451 529.077 350.635 530.681 344.069C532.285 337.502 532.265 330.443 530.623 323.68C528.981 316.916 525.782 310.714 521.383 305.766Z" fill="black"/>
</g>
<path d="M370.641 318.42C368.859 316.194 367.883 312.907 368.736 310.174C370.18 313.011 372.412 315.216 375.037 316.398C376.05 316.85 377.212 317.232 377.785 318.315C378.119 319.015 378.216 319.822 378.056 320.57C377.896 321.31 377.653 322.017 377.334 322.675L377.337 322.868C374.876 321.966 372.422 320.646 370.641 318.42Z" fill="#0B4E17"/>
<path d="M458.044 384.124C456.262 381.898 455.287 378.611 456.139 375.879C457.584 378.716 459.816 380.92 462.44 382.103C463.453 382.554 464.615 382.936 465.189 384.02C465.522 384.719 465.619 385.526 465.46 386.275C465.299 387.014 465.056 387.722 464.737 388.379L464.741 388.572C462.28 387.67 459.825 386.351 458.044 384.124Z" fill="#0B4E17"/>
<path d="M499.523 426.058C498.252 423.413 498.001 419.992 499.425 417.633C500.234 420.762 501.952 423.518 504.275 425.413C505.173 426.14 506.232 426.844 506.562 428.045C506.739 428.81 506.661 429.609 506.344 430.276C506.027 430.935 505.636 431.539 505.182 432.074L505.144 432.259C502.921 430.679 500.794 428.703 499.523 426.058Z" fill="#0B4E17"/>
<path d="M527.492 376.652C526.221 374.007 525.97 370.585 527.394 368.227C528.203 371.356 529.921 374.112 532.244 376.007C533.142 376.734 534.201 377.438 534.531 378.639C534.708 379.404 534.63 380.202 534.313 380.87C533.996 381.529 533.605 382.133 533.151 382.668L533.112 382.853C530.889 381.273 528.763 379.297 527.492 376.652Z" fill="#0B4E17"/>
<path d="M337.151 390.008C335.88 387.363 335.629 383.942 337.054 381.583C337.862 384.712 339.58 387.468 341.903 389.363C342.801 390.09 343.86 390.794 344.19 391.995C344.367 392.76 344.289 393.559 343.972 394.226C343.655 394.885 343.264 395.489 342.81 396.024L342.772 396.209C340.549 394.629 338.422 392.653 337.151 390.008Z" fill="#E6E6E6"/>
<path d="M446.819 418.425C447.63 408.627 452.622 399.106 460.589 396.161C457.662 406.18 457.931 417.281 461.35 427.501C462.681 431.437 464.505 435.676 463.438 439.567C462.773 441.988 461.049 443.802 459.099 444.908C457.149 446.015 454.967 446.503 452.812 446.98L452.396 447.378C448.734 438.21 446.008 428.224 446.819 418.425Z" fill="#E6E6E6"/>
<path d="M460.673 396.35C456.137 402.32 453.412 409.91 452.884 418.044C452.744 419.791 452.842 421.568 453.176 423.31C453.547 424.997 454.294 426.563 455.34 427.844C456.296 429.061 457.388 430.183 458.086 431.633C458.434 432.381 458.646 433.197 458.709 434.029C458.771 434.86 458.683 435.688 458.45 436.458C457.912 438.396 456.796 439.955 455.658 441.432C454.394 443.073 453.058 444.751 452.558 446.963C452.497 447.231 452.138 447.082 452.199 446.815C453.07 442.967 456.246 440.866 457.702 437.422C458.381 435.815 458.637 433.932 457.921 432.19C457.296 430.667 456.17 429.508 455.194 428.286C454.159 427.052 453.385 425.558 452.94 423.935C452.532 422.213 452.376 420.44 452.476 418.69C452.649 414.743 453.355 410.887 454.569 407.262C455.935 403.116 457.913 399.311 460.417 396.014C460.573 395.811 460.827 396.147 460.673 396.35Z" fill="white"/>
<path d="M452.921 415.405C451.756 415.041 450.716 414.212 449.989 413.066C449.261 411.921 448.893 410.534 448.95 409.152C448.962 408.873 449.337 408.906 449.325 409.186C449.27 410.472 449.613 411.764 450.292 412.829C450.971 413.894 451.942 414.662 453.028 414.994C453.265 415.066 453.156 415.477 452.921 415.405Z" fill="white"/>
<path d="M454.789 427.298C456.845 425.909 458.332 423.638 458.954 420.937C459.016 420.669 459.375 420.818 459.313 421.085C458.661 423.894 457.109 426.254 454.967 427.693C454.763 427.83 454.586 427.434 454.789 427.298Z" fill="white"/>
<path d="M456.292 403.54C456.723 403.789 457.195 403.913 457.664 403.9C458.134 403.887 458.587 403.738 458.982 403.466C459.185 403.326 459.361 403.722 459.16 403.862C458.722 404.159 458.221 404.323 457.703 404.339C457.184 404.354 456.663 404.221 456.185 403.951C456.138 403.93 456.099 403.889 456.076 403.837C456.052 403.785 456.046 403.726 456.059 403.672C456.074 403.617 456.106 403.573 456.15 403.549C456.193 403.524 456.245 403.521 456.292 403.54Z" fill="white"/>
<path d="M485.534 414.498C485.41 414.59 485.286 414.682 485.161 414.778C483.499 416.022 481.933 417.428 480.48 418.982C480.366 419.1 480.252 419.221 480.142 419.343C476.678 423.131 473.884 427.676 471.902 432.747C471.115 434.766 470.464 436.86 469.956 439.012C469.254 441.983 468.699 445.284 467.225 447.686C467.074 447.939 466.909 448.179 466.731 448.407L452.873 447.968C452.841 447.948 452.809 447.932 452.777 447.913L452.225 447.925C452.244 447.811 452.266 447.694 452.286 447.581C452.297 447.515 452.311 447.449 452.322 447.383C452.33 447.339 452.339 447.295 452.344 447.255C452.347 447.24 452.35 447.226 452.353 447.215C452.358 447.174 452.367 447.138 452.372 447.101C452.495 446.446 452.623 445.791 452.754 445.136C452.754 445.132 452.754 445.132 452.757 445.128C453.77 440.142 455.155 435.233 457.148 430.766C457.208 430.632 457.268 430.494 457.334 430.36C458.242 428.353 459.293 426.446 460.478 424.656C461.13 423.679 461.825 422.743 462.562 421.853C464.469 419.559 466.691 417.648 469.147 416.192C474.043 413.291 479.769 412.302 485.126 414.338C485.263 414.39 485.397 414.443 485.534 414.498Z" fill="#E6E6E6"/>
<path d="M485.508 414.702C478.646 416.081 472.452 419.973 467.805 425.825C466.785 427.063 465.947 428.492 465.323 430.059C464.759 431.611 464.571 433.334 464.778 435.049C464.944 436.651 465.271 438.278 465.102 439.877C465.004 440.694 464.759 441.468 464.381 442.148C464.003 442.828 463.501 443.399 462.909 443.824C461.458 444.929 459.724 445.338 458.013 445.668C456.113 446.035 454.133 446.38 452.573 447.72C452.384 447.882 452.162 447.517 452.351 447.354C455.066 445.023 458.795 445.648 461.788 444.036C463.184 443.284 464.371 442.023 464.677 440.188C464.945 438.583 464.608 436.905 464.428 435.284C464.205 433.613 464.334 431.926 464.804 430.371C465.356 428.768 466.143 427.301 467.132 426.033C469.317 423.134 471.9 420.681 474.785 418.761C478.066 416.548 481.679 415.028 485.468 414.266C485.703 414.219 485.741 414.656 485.508 414.702Z" fill="white"/>
<path d="M469.201 423.832C468.42 422.734 467.984 421.37 467.972 419.982C467.959 418.594 468.371 417.274 469.133 416.257C469.288 416.052 469.582 416.341 469.427 416.546C468.716 417.492 468.333 418.722 468.347 420.014C468.361 421.306 468.771 422.575 469.503 423.593C469.662 423.814 469.359 424.052 469.201 423.832Z" fill="white"/>
<path d="M464.603 434.244C467.031 434.626 469.443 433.933 471.358 432.305C471.547 432.143 471.769 432.509 471.58 432.67C469.584 434.361 467.073 435.075 464.546 434.671C464.305 434.633 464.363 434.205 464.603 434.244Z" fill="white"/>
<path d="M478.144 417.124C478.373 417.618 478.701 418.044 479.099 418.364C479.496 418.684 479.95 418.888 480.419 418.958C480.66 418.993 480.602 419.421 480.363 419.386C479.844 419.305 479.343 419.079 478.904 418.727C478.464 418.374 478.099 417.906 477.842 417.363C477.814 417.314 477.802 417.256 477.81 417.2C477.817 417.143 477.843 417.094 477.882 417.061C477.922 417.03 477.972 417.019 478.021 417.03C478.07 417.042 478.114 417.076 478.144 417.124Z" fill="white"/>
<path d="M376.514 417.545L364.766 407.003L359.318 413.359L378.417 428.898L376.514 417.545Z" fill="#3F3D56"/>
<path d="M387.92 445.91L427.262 447.156L425.756 441.901C417.117 438.021 421.732 430.417 413.482 425.418C393.304 413.191 384.762 378.342 387.344 364.754L374.289 363.699C374.289 363.699 357.726 422.736 387.92 445.91Z" fill="#3F3D56"/>
<path d="M351.373 414.849C351.293 413.842 351.043 412.852 350.636 411.938C350.229 411.024 349.674 410.204 349.003 409.526C348.994 409.517 348.985 409.507 348.976 409.498L348.95 409.472C348.049 408.543 347.363 407.366 346.962 406.06L346.93 405.958L347.022 405.952C347.73 405.908 348.421 405.727 349.065 405.416C348.285 405.467 347.496 405.328 346.747 405.007L346.704 404.991L346.695 404.94C346.505 403.838 346.519 402.715 346.738 401.646C346.956 400.578 347.374 399.591 347.961 398.752C348.549 397.914 349.292 397.244 350.141 396.788C350.99 396.333 351.924 396.103 352.878 396.115C353.463 396.125 354.036 395.991 354.561 395.722C355.085 395.453 355.549 395.055 355.921 394.554L355.974 394.483C356.462 393.83 357.021 393.254 357.637 392.767L357.684 392.73L357.728 392.778C358.14 393.231 358.598 393.624 359.09 393.945C358.727 393.504 358.422 393.002 358.188 392.459L358.156 392.388L358.213 392.35C360.095 391.107 362.332 390.711 364.525 391.233C366.717 391.755 368.722 393.161 370.18 395.199C371.638 397.237 372.453 399.773 372.481 402.355C372.508 404.936 371.746 407.394 370.33 409.288C369.995 409.736 369.626 410.148 369.229 410.521C367.002 412.558 365.223 415.177 364.025 418.187C363.775 418.828 363.448 419.42 363.053 419.947C362.985 420.037 362.914 420.128 362.84 420.217L362.754 420.321L362.717 420.177C362.606 419.748 362.54 419.308 362.521 418.867C362.382 419.475 362.312 420.106 362.313 420.744L362.313 420.782L362.288 420.806C361.361 421.678 360.23 422.219 359.021 422.369C357.812 422.519 356.572 422.271 355.44 421.653C354.308 421.035 353.328 420.072 352.61 418.87C351.892 417.669 351.463 416.277 351.373 414.849Z" fill="#E6E6E6"/>
<path opacity="0.15" d="M352.475 417.833C352.494 418.111 352.525 418.389 352.57 418.664C351.897 417.491 351.494 416.147 351.402 414.771C351.388 414.56 351.364 414.35 351.333 414.14C351.986 415.248 352.38 416.523 352.475 417.833Z" fill="black"/>
<path opacity="0.15" d="M350.167 408.401C349.649 408.649 349.1 408.814 348.536 408.89C348.311 408.615 348.103 408.322 347.913 408.014C348.642 408.319 349.41 408.451 350.167 408.401Z" fill="black"/>
<path opacity="0.15" d="M347.683 405.793C347.64 406.457 347.672 407.13 347.778 407.794C347.451 407.228 347.186 406.619 346.991 405.982L346.959 405.879L347.051 405.874C347.263 405.859 347.474 405.832 347.683 405.793Z" fill="black"/>
<path opacity="0.15" d="M348.117 398.498C348.706 397.712 349.436 397.088 350.261 396.664C351.086 396.24 351.987 396.026 352.906 396.036C353.491 396.047 354.065 395.913 354.589 395.644C355.114 395.375 355.577 394.977 355.95 394.475L356.003 394.404C356.491 393.752 357.05 393.175 357.666 392.688L357.713 392.651L357.756 392.699C358.168 393.153 358.626 393.545 359.119 393.866C358.756 393.425 358.451 392.924 358.217 392.381L358.185 392.31L358.242 392.272C359.489 391.447 360.903 390.988 362.367 390.934C363.832 390.88 365.306 391.232 366.669 391.96C368.032 392.689 369.246 393.773 370.212 395.126C371.177 396.479 371.866 398.061 372.224 399.744C371.583 398.475 370.74 397.353 369.742 396.443C368.744 395.533 367.612 394.853 366.411 394.443C365.211 394.033 363.965 393.9 362.747 394.053C361.529 394.206 360.363 394.642 359.316 395.334L359.258 395.372L359.29 395.443C359.525 395.986 359.829 396.488 360.193 396.929C359.7 396.608 359.242 396.215 358.83 395.762L358.786 395.714L358.739 395.751C358.123 396.238 357.565 396.814 357.076 397.467L357.024 397.538C356.651 398.039 356.187 398.437 355.663 398.706C355.138 398.975 354.565 399.109 353.98 399.099C352.451 399.081 350.993 399.682 349.855 400.8C348.716 401.918 347.969 403.484 347.739 405.23C347.414 405.153 347.092 405.052 346.775 404.929L346.733 404.912L346.724 404.861C346.525 403.72 346.546 402.555 346.788 401.454C347.029 400.352 347.483 399.342 348.117 398.498Z" fill="black"/>
<path d="M339.505 348.691C343.295 344.41 345.369 338.114 345.207 331.395C345.206 331.351 345.205 331.307 345.203 331.263L345.2 331.137C345.092 326.745 345.987 322.464 347.793 318.73L347.935 318.436L348.153 318.683C349.845 320.594 351.782 322.183 353.885 323.383C352.226 321.63 350.815 319.259 349.494 316.024L349.431 315.871L349.517 315.744C351.375 313.011 353.742 310.814 356.455 309.302C359.168 307.791 362.163 307.002 365.234 306.989C368.304 306.977 371.377 307.741 374.242 309.229C377.106 310.717 379.694 312.895 381.828 315.611C383.129 317.282 384.703 318.634 386.448 319.578C388.192 320.522 390.067 321.038 391.952 321.091L392.218 321.098C394.678 321.175 397.138 321.604 399.543 322.373L399.726 322.432L399.725 322.65C399.714 324.717 399.934 326.791 400.381 328.821C400.476 326.916 400.829 325.058 401.427 323.314L401.503 323.082L401.711 323.168C408.547 326.002 414.427 331.528 418.299 338.757C422.172 345.985 423.783 354.444 422.845 362.619C421.907 370.793 418.481 378.15 413.18 383.371C407.879 388.592 401.05 391.336 393.915 391.113C392.226 391.06 390.537 390.843 388.864 390.464C379.107 388.247 369.79 388.444 361.173 391.05C359.276 391.621 357.306 391.878 355.318 391.813C354.98 391.803 354.629 391.782 354.276 391.75L353.867 391.715L354.084 391.325C354.721 390.156 355.487 389.093 356.362 388.162C354.784 388.98 353.315 390.039 351.992 391.313L351.913 391.39L351.807 391.366C347.899 390.489 344.218 388.375 341.173 385.26C338.129 382.145 335.841 378.151 334.565 373.725C333.289 369.299 333.075 364.614 333.948 360.194C334.82 355.773 336.744 351.791 339.505 348.691Z" fill="#E6E6E6"/>
<g opacity="0.15">
<path d="M358.034 308.509C358.802 309.953 359.736 311.272 360.809 312.43C359.292 311.563 357.861 310.494 356.544 309.244C357.031 308.976 357.527 308.731 358.034 308.509Z" fill="black"/>
<path d="M346.429 337.737C345.303 339.01 344.311 340.436 343.473 341.987C344.711 338.688 345.303 335.074 345.207 331.395C345.206 331.351 345.204 331.307 345.203 331.262L345.2 331.137C345.092 326.745 345.987 322.464 347.793 318.73L347.935 318.436L348.153 318.683C349.359 320.043 350.69 321.241 352.119 322.252C351.903 328.282 349.876 333.844 346.429 337.737Z" fill="black"/>
<path d="M352.123 320.184L352.127 320.309C352.128 320.353 352.129 320.398 352.13 320.442C352.136 320.686 352.138 320.928 352.138 321.171C351.098 319.567 350.21 317.84 349.494 316.024L349.431 315.871L349.517 315.744C350.601 314.151 351.86 312.733 353.263 311.525C352.438 314.279 352.052 317.212 352.123 320.184Z" fill="black"/>
<path d="M339.505 348.691C340.501 347.562 341.38 346.3 342.125 344.929C340.814 348.35 340.218 352.122 340.384 355.951C340.55 359.78 341.473 363.561 343.082 366.998C344.69 370.435 346.94 373.435 349.655 375.762C352.37 378.09 355.476 379.682 358.731 380.413L358.836 380.436L358.916 380.36C360.239 379.086 361.708 378.026 363.286 377.208C362.41 378.14 361.645 379.203 361.008 380.371L360.79 380.761L361.2 380.797C361.553 380.828 361.903 380.849 362.241 380.86C364.229 380.925 366.2 380.668 368.097 380.096C376.714 377.491 386.03 377.294 395.787 379.51C397.46 379.889 399.15 380.107 400.838 380.16C408.198 380.4 415.225 377.467 420.573 371.924C418.284 377.84 414.565 382.783 409.846 386.18C405.127 389.576 399.603 391.287 393.915 391.113C392.226 391.06 390.537 390.843 388.864 390.464C379.107 388.247 369.79 388.444 361.173 391.05C359.276 391.621 357.306 391.878 355.318 391.813C354.98 391.803 354.629 391.782 354.276 391.75L353.867 391.715L354.084 391.325C354.721 390.156 355.487 389.093 356.362 388.162C354.784 388.98 353.315 390.039 351.992 391.313L351.913 391.39L351.807 391.366C347.899 390.489 344.218 388.375 341.173 385.26C338.129 382.145 335.841 378.151 334.565 373.725C333.289 369.299 333.075 364.614 333.948 360.194C334.82 355.773 336.744 351.791 339.505 348.691Z" fill="black"/>
</g>
<path d="M259.344 415.041C255.903 414.932 252.54 413.404 249.852 410.729C247.164 408.054 245.325 404.406 244.662 400.432L244.648 400.348L244.693 400.285C245.439 399.231 246.058 398.061 246.536 396.805C245.991 397.502 245.369 398.112 244.685 398.62L244.457 398.793L244.435 398.468C244.417 398.187 244.404 397.908 244.398 397.638C244.358 396.056 244.507 394.488 244.841 392.978C246.361 386.117 246.47 378.703 245.164 370.939C244.941 369.608 244.812 368.263 244.78 366.919C244.644 361.241 246.247 355.803 249.301 351.581C252.355 347.358 256.662 344.626 261.45 343.873C266.237 343.121 271.193 344.397 275.43 347.474C279.667 350.55 282.908 355.227 284.573 360.665L284.624 360.831L284.488 360.891C283.467 361.368 282.379 361.65 281.263 361.727C282.453 362.082 283.668 362.256 284.878 362.245L285.006 362.244L285.041 362.39C285.493 364.303 285.746 366.26 285.793 368.219L285.797 368.431C285.83 369.93 286.133 371.422 286.688 372.81C287.242 374.198 288.035 375.45 289.015 376.484C290.607 378.18 291.884 380.238 292.758 382.517C293.632 384.796 294.082 387.241 294.077 389.685C294.072 392.129 293.612 394.513 292.728 396.673C291.845 398.833 290.559 400.719 288.96 402.2L288.886 402.269L288.796 402.219C286.9 401.169 285.511 400.048 284.482 398.729C285.187 400.402 286.119 401.942 287.239 403.288L287.384 403.461L287.212 403.574C285.027 405.014 282.519 405.73 279.947 405.647L279.873 405.645C279.847 405.644 279.821 405.643 279.795 405.642C277.895 405.558 276.02 405.918 274.281 406.699C272.542 407.481 270.974 408.668 269.669 410.192C268.35 411.78 266.757 413.027 264.984 413.86C263.211 414.692 261.293 415.094 259.344 415.041Z" fill="#E4E4E4"/>
<path d="M254.846 441.573C254.783 441.571 254.722 441.543 254.673 441.493C254.624 441.443 254.591 441.376 254.581 441.302C254.567 441.211 253.253 431.999 253.938 419.833C254.571 408.598 257.085 392.465 265.473 379.417C265.493 379.385 265.519 379.359 265.548 379.34C265.577 379.321 265.61 379.309 265.644 379.304C265.678 379.3 265.713 379.303 265.746 379.315C265.78 379.326 265.811 379.345 265.839 379.37C265.867 379.395 265.891 379.427 265.909 379.462C265.928 379.497 265.94 379.536 265.945 379.576C265.951 379.616 265.95 379.656 265.942 379.695C265.934 379.733 265.919 379.769 265.899 379.801C257.584 392.737 255.09 408.751 254.462 419.907C253.781 432.002 255.085 441.142 255.098 441.233C255.104 441.276 255.103 441.32 255.093 441.362C255.083 441.404 255.066 441.442 255.042 441.474C255.018 441.507 254.989 441.532 254.955 441.549C254.921 441.566 254.884 441.575 254.846 441.573Z" fill="#3F3D56"/>
<path d="M258.112 396.789C258.057 396.787 258.002 396.765 257.957 396.726C257.911 396.686 257.876 396.632 257.858 396.57C257.839 396.508 257.837 396.442 257.853 396.381C257.869 396.32 257.901 396.267 257.944 396.231C260.379 394.351 263.022 392.845 265.812 391.748C270.17 390.008 276.825 388.516 283.782 391.292C283.815 391.305 283.846 391.326 283.873 391.353C283.9 391.379 283.922 391.412 283.939 391.448C283.956 391.484 283.967 391.523 283.971 391.564C283.975 391.604 283.972 391.644 283.962 391.682C283.953 391.72 283.937 391.755 283.915 391.785C283.893 391.815 283.867 391.839 283.837 391.857C283.806 391.874 283.773 391.884 283.739 391.887C283.704 391.889 283.67 391.883 283.637 391.87C276.823 389.151 270.288 390.618 266.006 392.328C263.261 393.406 260.661 394.887 258.265 396.735C258.221 396.772 258.168 396.791 258.112 396.789Z" fill="#3F3D56"/>
<path d="M285.924 384.991C286.224 384.904 286.501 384.74 286.735 384.511C286.969 384.282 287.154 383.994 287.277 383.665C287.4 383.337 287.458 382.977 287.448 382.611C287.437 382.245 287.358 381.882 287.215 381.547L291.417 364.104L287.994 363.209L284.178 380.317C283.724 380.602 283.385 381.078 283.225 381.654C283.065 382.231 283.095 382.867 283.31 383.443C283.525 384.019 283.91 384.495 284.392 384.78C284.873 385.065 285.418 385.14 285.924 384.991Z" fill="#FFB6B6"/>
<path d="M291.563 358.974C291.066 358.731 290.524 358.676 290.017 358.816L290.017 358.819C289.846 358.862 289.68 358.929 289.525 359.018C289.355 359.112 289.196 359.23 289.053 359.371C288.743 359.668 288.508 360.056 288.368 360.499L286.224 365.009C286.162 365.137 286.126 365.28 286.118 365.43C286.109 365.579 286.129 365.73 286.176 365.873C286.222 366.017 286.293 366.149 286.385 366.261C286.478 366.373 286.588 366.461 286.71 366.52L287.203 366.757L289.543 367.89L290.406 368.311L290.987 368.591C291.109 368.65 291.238 368.679 291.367 368.675C291.496 368.671 291.621 368.634 291.733 368.567C291.846 368.501 291.943 368.406 292.019 368.289C292.095 368.172 292.147 368.036 292.172 367.89L293.066 362.791C293.29 362.08 293.257 361.279 292.975 360.563C292.693 359.848 292.185 359.276 291.563 358.974Z" fill="#3F3D56"/>
<path d="M300.189 438.334L302.546 438.409L303.41 427.849L299.932 427.739L300.189 438.334Z" fill="#FFB6B6"/>
<path d="M299.06 443.054L300.75 443.108L301.007 441.258L301.825 443.142L306.307 443.284C306.522 443.291 306.729 443.217 306.899 443.074C307.068 442.932 307.191 442.727 307.249 442.489C307.307 442.252 307.298 441.996 307.222 441.757C307.146 441.518 307.008 441.309 306.828 441.161L303.178 438.166L303.133 436.286L299.374 436.428L299.06 443.054Z" fill="#2F2E41"/>
<path d="M277.136 432.158L279.197 433.623L284.595 425.354L281.553 423.191L277.136 432.158Z" fill="#FFB6B6"/>
<path d="M274.065 435.412L275.543 436.463L276.582 435.077L276.483 437.131L280.403 439.919C280.591 440.052 280.807 440.115 281.02 440.097C281.233 440.079 281.432 439.981 281.588 439.819C281.743 439.656 281.847 439.437 281.885 439.193C281.922 438.949 281.891 438.693 281.796 438.463L279.866 433.798L280.65 432.207L277.248 430.087L274.065 435.412Z" fill="#2F2E41"/>
<path d="M299.599 370.619L300.951 379.165L290.074 378.988L291.308 370.856L299.599 370.619Z" fill="#FFB6B6"/>
<path d="M300.99 379.059L304.31 387.942L305.106 411.442L302.998 433.788L300.063 433.695L298.326 411.592L295.002 396.401L292.468 412.099L283.774 427.268L279.317 427.126L287.098 410.354L287.596 391.831C287.596 391.831 286.815 383.942 289.727 379.393L290.403 376.937L300.99 379.059Z" fill="#2F2E41"/>
<path d="M300.747 362.823C300.739 362.747 300.727 362.666 300.713 362.589C300.433 360.746 299.544 359.066 298.239 357.918C296.933 356.77 295.319 356.246 293.75 356.463C292.275 356.675 290.948 357.511 290.017 358.815L290.017 358.819C289.968 358.887 289.923 358.958 289.878 359.029C289.797 359.151 289.722 359.279 289.65 359.408C289.002 360.579 288.687 361.973 288.748 363.404L288.748 363.408C288.771 363.959 288.851 364.509 288.984 365.045C289.215 365.984 289.402 366.934 289.543 367.89C289.639 368.497 289.716 369.093 289.777 369.674C289.812 369.966 289.841 370.254 289.867 370.535L289.867 370.539C289.994 371.929 290.056 373.176 290.107 374.142C290.132 374.666 290.155 375.104 290.185 375.44C290.186 375.462 290.189 375.484 290.193 375.505C290.223 375.731 290.311 375.945 290.445 376.117C290.462 376.141 290.48 376.164 290.5 376.185C290.642 376.334 290.812 376.442 290.995 376.499C291.058 376.515 291.122 376.525 291.186 376.527L291.204 376.527L293.002 375.594L294.42 374.86L299.233 372.364C299.433 372.365 299.625 372.296 299.783 372.164C299.942 372.033 300.059 371.846 300.12 371.628L300.12 371.624C300.126 371.595 300.134 371.566 300.14 371.534C300.373 370.337 300.807 369.059 300.923 366.985C300.937 366.687 300.948 366.378 300.95 366.047L300.95 366.043C300.951 364.97 300.883 363.894 300.747 362.823Z" fill="#3F3D56"/>
<path d="M293.797 355.314C296.337 355.394 298.339 353.059 298.267 350.097C298.195 347.136 296.078 344.67 293.537 344.59C290.996 344.509 288.995 346.845 289.067 349.806C289.138 352.767 291.256 355.233 293.797 355.314Z" fill="#FFB6B6"/>
<path d="M288.957 358.131C287.988 358.101 287.07 358.521 286.404 359.298C285.738 360.075 285.379 361.146 285.405 362.276L285.619 371.107C285.643 372.099 285.964 373.07 286.526 373.852C287.088 374.633 287.856 375.176 288.698 375.385L288.701 375.385C288.925 375.441 289.151 375.472 289.378 375.48L294.439 375.64L294.019 358.291L288.957 358.131Z" fill="#0B4E17"/>
<path d="M289.044 359.003L289.2 365.445C289.205 365.642 289.277 365.833 289.4 365.976C289.522 366.119 289.686 366.203 289.855 366.208C290.025 366.213 290.185 366.14 290.301 366.005C290.417 365.869 290.48 365.682 290.475 365.485L290.319 359.043L289.044 359.003Z" fill="#3F3D56"/>
<path d="M292.111 369.748L288.406 369.63C288.3 369.627 288.196 369.648 288.099 369.692C288.003 369.736 287.916 369.803 287.844 369.888C287.771 369.973 287.714 370.074 287.677 370.187C287.64 370.3 287.622 370.421 287.625 370.544L287.688 373.126C287.694 373.375 287.784 373.616 287.939 373.797C288.094 373.978 288.3 374.084 288.514 374.091L292.219 374.209C292.433 374.215 292.635 374.122 292.782 373.951C292.929 373.78 293.008 373.544 293.002 373.295L292.94 370.713C292.937 370.589 292.913 370.466 292.87 370.351C292.826 370.236 292.765 370.13 292.688 370.041C292.611 369.951 292.52 369.879 292.421 369.829C292.322 369.779 292.217 369.751 292.111 369.748Z" fill="#3F3D56"/>
<path d="M298.936 369.148C299.91 367.685 300.399 365.844 300.318 363.94C300.225 360.114 298.194 356.939 295.791 356.863C294.501 356.822 293.307 357.682 292.516 359.223L292.884 359.495C293.6 358.101 294.664 357.322 295.803 357.358C297.972 357.427 299.806 360.373 299.892 363.926C299.971 365.713 299.516 367.442 298.604 368.817L298.936 369.148Z" fill="#0B4E17"/>
<path d="M309.275 382.421C309.406 382.098 309.473 381.74 309.471 381.375C309.469 381.009 309.398 380.644 309.264 380.305C309.129 379.966 308.934 379.661 308.692 379.413C308.45 379.164 308.167 378.978 307.862 378.866L299.255 362.904L296.552 365.265L305.184 380.653C305.085 381.251 305.18 381.883 305.451 382.429C305.723 382.975 306.151 383.397 306.655 383.615C307.159 383.833 307.705 383.832 308.187 383.612C308.67 383.392 309.057 382.968 309.275 382.421Z" fill="#FFB6B6"/>
<path d="M302.158 364.91L300.713 362.59L299.94 361.35L299.436 360.54C299.276 360.186 299.057 359.87 298.793 359.61C298.342 359.166 297.782 358.909 297.207 358.882C296.632 358.854 296.078 359.059 295.637 359.46C295.197 359.861 294.897 360.436 294.789 361.086C294.68 361.736 294.77 362.422 295.042 363.028L296.607 368.081C296.652 368.225 296.722 368.358 296.814 368.47C296.905 368.582 297.015 368.672 297.136 368.732C297.257 368.793 297.387 368.823 297.515 368.82C297.644 368.818 297.77 368.783 297.883 368.719L298.342 368.457L299.066 368.043L299.715 367.674L299.719 367.674L300.923 366.985L301.332 366.754L301.874 366.443C301.987 366.378 302.086 366.284 302.163 366.168C302.239 366.052 302.293 365.917 302.32 365.772C302.347 365.626 302.347 365.474 302.319 365.325C302.291 365.177 302.236 365.035 302.158 364.91Z" fill="#3F3D56"/>
<path d="M521.46 450.455L245.753 441.72C245.715 441.719 245.677 441.71 245.642 441.692C245.607 441.674 245.574 441.648 245.547 441.616C245.519 441.584 245.497 441.547 245.482 441.506C245.466 441.464 245.458 441.421 245.457 441.377C245.456 441.332 245.462 441.289 245.475 441.249C245.489 441.209 245.509 441.172 245.535 441.142C245.561 441.112 245.593 441.088 245.627 441.073C245.662 441.057 245.699 441.05 245.737 441.051L521.443 449.785C521.519 449.788 521.593 449.826 521.649 449.89C521.704 449.954 521.736 450.041 521.739 450.129C521.741 450.218 521.713 450.302 521.66 450.363C521.608 450.425 521.536 450.458 521.46 450.455Z" fill="#CCCCCC"/>
<path d="M390.908 418.275C389.637 415.63 389.385 412.208 390.81 409.85C391.619 412.979 393.337 415.735 395.66 417.63C396.558 418.357 397.617 419.061 397.947 420.262C398.124 421.027 398.046 421.825 397.728 422.493C397.411 423.152 397.021 423.756 396.566 424.291L396.528 424.476C394.305 422.896 392.179 420.92 390.908 418.275Z" fill="#E6E6E6"/>
<path d="M315.266 350.015C313.995 347.37 313.743 343.948 315.168 341.59C315.977 344.719 317.695 347.475 320.018 349.37C320.916 350.097 321.974 350.801 322.305 352.002C322.482 352.767 322.403 353.565 322.086 354.233C321.769 354.892 321.379 355.496 320.924 356.031L320.886 356.216C318.663 354.636 316.537 352.66 315.266 350.015Z" fill="#E6E6E6"/>
<path d="M290.755 345.488L290.755 345.491C290.761 345.725 290.741 345.956 290.696 346.18C290.689 346.22 290.68 346.261 290.67 346.3L290.67 346.302C290.571 346.701 290.393 347.064 290.15 347.36C289.906 347.657 289.604 347.88 289.266 348.012C289.217 348.033 289.165 348.05 289.114 348.065C289.006 348.098 288.895 348.121 288.783 348.134C288.682 348.147 288.58 348.152 288.478 348.148C288.398 348.146 288.318 348.139 288.239 348.128C288.052 348.1 287.868 348.045 287.691 347.965C287.663 347.955 287.636 347.943 287.609 347.929C287.596 347.923 287.583 347.916 287.57 347.909C287.273 347.757 287.003 347.537 286.775 347.264C286.548 346.991 286.368 346.67 286.246 346.32C286.125 345.97 286.064 345.599 286.068 345.23C286.072 344.86 286.141 344.499 286.27 344.169L286.271 344.167C286.379 343.891 286.529 343.641 286.714 343.429C287.139 342.933 287.727 342.666 288.346 342.686C288.377 342.686 288.407 342.689 288.438 342.693C288.795 342.721 289.146 342.844 289.465 343.051C289.784 343.258 290.062 343.545 290.279 343.89C290.466 344.187 290.603 344.521 290.68 344.874C290.725 345.076 290.75 345.282 290.755 345.488Z" fill="#2F2E41"/>
<path d="M288.011 343.746C287.783 342.834 287.318 342.014 286.683 341.4C286.047 340.787 285.273 340.412 284.47 340.329C283.666 340.245 282.875 340.458 282.208 340.936C281.541 341.414 281.031 342.134 280.752 342.992C280.284 344.432 280.508 346.089 280.244 347.609C279.974 348.988 279.317 350.2 278.376 351.06C277.434 351.92 276.258 352.38 275.03 352.37L279.642 354.656C280.136 354.962 280.685 355.108 281.23 355.079C282.02 354.948 282.55 354.082 282.752 353.187C282.954 352.293 282.912 351.336 283.032 350.416C283.188 349.288 283.58 348.236 284.175 347.351C284.77 346.467 285.549 345.778 286.444 345.342C286.952 345.103 287.518 344.928 287.869 344.445C288.22 343.962 288.177 343.029 287.645 342.794" fill="#2F2E41"/>
<path d="M295.402 344.001C294.745 342.406 293.121 342.675 291.65 342.836C290.916 342.945 290.226 343.263 289.64 343.762C289.053 344.261 288.588 344.926 288.285 345.7C287.693 347.268 287.616 349.064 288.068 350.76C288.317 351.914 288.869 352.966 289.645 353.766C290.442 354.521 294.148 356.365 294.417 354.887C294.083 356.816 294.842 356.536 296.014 358.06C296.552 356.019 296.734 352.148 297.272 350.107L297.515 349.186C297.686 348.538 297.857 347.89 297.976 347.223C298.125 346.386 298.166 345.423 297.701 344.719C297.235 344.016 296.104 343.954 295.897 344.77" fill="#2F2E41"/>
<path d="M294.82 350.535L294.588 349.07C294.678 347.259 294.39 344.366 295.402 344.001L296.044 344.75C295.653 344.891 294.967 347.581 294.82 350.535Z" fill="#FF6584"/>
</g>
</g>
<defs>
<filter id="filter0_f_110_299" x="-3.80475" y="-3.63306" width="793.288" height="764.05" filterUnits="userSpaceOnUse" color-interpolation-filters="sRGB">
<feFlood flood-opacity="0" result="BackgroundImageFix"/>
<feBlend mode="normal" in="SourceGraphic" in2="BackgroundImageFix" result="shape"/>
<feGaussianBlur stdDeviation="2" result="effect1_foregroundBlur_110_299"/>
</filter>
<filter id="filter1_f_110_299" x="25.361" y="-37.1711" width="731.433" height="753.953" filterUnits="userSpaceOnUse" color-interpolation-filters="sRGB">
<feFlood flood-opacity="0" result="BackgroundImageFix"/>
<feBlend mode="normal" in="SourceGraphic" in2="BackgroundImageFix" result="shape"/>
<feGaussianBlur stdDeviation="90" result="effect1_foregroundBlur_110_299"/>
</filter>
<clipPath id="clip0_110_299">
<rect width="683.278" height="647.233" fill="white" transform="translate(0.195251 119.017) rotate(-10)"/>
</clipPath>
<clipPath id="clip1_110_299">
<rect width="291.651" height="232.083" fill="white" transform="matrix(0.999499 0.031665 0.0242245 0.999707 239.237 209.678)"/>
</clipPath>
</defs>
</svg>
