<svg width="175" height="151" viewBox="0 0 175 151" fill="none" xmlns="http://www.w3.org/2000/svg">
<g clip-path="url(#clip0_118_838)">
<path d="M99.6458 73.8345C103.584 73.8345 106.776 70.2877 106.776 65.9126C106.776 61.5375 103.584 57.9907 99.6458 57.9907C95.708 57.9907 92.5157 61.5375 92.5157 65.9126C92.5157 70.2877 95.708 73.8345 99.6458 73.8345Z" fill="#E6E6E6"/>
<path d="M117.12 76.0927L109.669 67.8142C110.24 66.8271 110.627 65.7228 110.807 64.5665C110.987 63.4103 110.957 62.2257 110.717 61.0829C110.477 59.9401 110.034 58.8623 109.412 57.9135C108.791 56.9646 108.005 56.164 107.1 55.5591C105.396 54.4281 103.371 54.0493 101.428 54.4979C99.4846 54.9464 97.7637 56.1895 96.606 57.9809C95.5408 59.6404 95.0292 61.6603 95.1592 63.6934C95.2891 65.7265 96.0525 67.6458 97.3181 69.1213C98.5837 70.5968 100.272 71.5363 102.094 71.7784C103.915 72.0205 105.756 71.5499 107.299 70.4476L114.75 78.7262C115.065 79.075 115.491 79.271 115.935 79.2708C116.379 79.2707 116.806 79.0745 117.12 78.7254C117.434 78.3763 117.611 77.9029 117.611 77.4092C117.611 76.9155 117.434 76.442 117.12 76.0927ZM107.021 67.5051C106.098 68.5309 104.883 69.1693 103.583 69.3115C102.284 69.4537 100.98 69.0909 99.8949 68.285C98.8092 67.4791 98.0087 66.2798 97.6297 64.8916C97.2506 63.5034 97.3166 62.0122 97.8162 60.6719C98.3159 59.3317 99.2183 58.2254 100.37 57.5415C101.521 56.8577 102.851 56.6386 104.131 56.9216C105.412 57.2046 106.564 57.9722 107.393 59.0936C108.221 60.215 108.674 61.6208 108.674 63.0714C108.675 63.895 108.529 64.7107 108.246 65.4715C107.962 66.2324 107.546 66.9235 107.021 67.5051Z" fill="#3F3D56"/>
<path d="M171.132 88.3038C190.187 111.717 134.95 145.459 90.316 145.459C45.6824 145.459 14.803 119.315 9.49977 88.3038C-3.35868 13.1126 119.057 -34.6786 90.316 31.1489C48.4227 127.1 156.126 69.8655 171.132 88.3038Z" fill="#E6E6E6"/>
<path d="M162.582 93.8451C181.638 117.258 126.4 151 81.7663 151C37.1327 151 6.25324 124.856 0.950031 93.8451C-11.9084 18.6538 110.507 -29.1373 81.7663 36.6901C39.873 132.641 147.576 75.4067 162.582 93.8451Z" fill="#3F3D56"/>
<path d="M26.6456 38.9517C13.2746 38.2976 2.90736 35.093 3.04356 31.6562C3.12522 29.5957 6.90933 27.9388 13.4256 27.1106C13.4489 27.1074 13.4725 27.1094 13.4952 27.1165C13.5178 27.1236 13.5389 27.1355 13.5573 27.1517C13.5758 27.1679 13.5912 27.1879 13.6026 27.2107C13.614 27.2335 13.6213 27.2586 13.624 27.2845C13.6266 27.3105 13.6247 27.3367 13.6182 27.3618C13.6116 27.3869 13.6007 27.4103 13.5861 27.4307C13.5714 27.4511 13.5532 27.468 13.5326 27.4806C13.512 27.4931 13.4894 27.501 13.466 27.5038C7.32775 28.2841 3.47046 29.8819 3.39945 31.6736C3.27629 34.7815 13.9289 37.9334 26.6612 38.5562C39.3936 39.1791 50.2543 37.0797 50.3775 33.9718C50.4488 32.1725 46.7088 30.1987 40.6169 28.8208C40.5939 28.8157 40.5721 28.8056 40.5526 28.791C40.5332 28.7765 40.5165 28.7579 40.5035 28.7362C40.4906 28.7145 40.4816 28.6902 40.4771 28.6646C40.4726 28.6391 40.4727 28.6128 40.4774 28.5873C40.4821 28.5617 40.4912 28.5375 40.5044 28.5159C40.5175 28.4944 40.5343 28.4759 40.5539 28.4615C40.5734 28.4472 40.5954 28.4373 40.6184 28.4324C40.6414 28.4275 40.665 28.4277 40.688 28.4329C47.1539 29.8955 50.8153 31.9207 50.7333 33.9892C50.5972 37.426 40.0165 39.6058 26.6456 38.9517Z" fill="#0B4E17"/>
<path d="M14.7702 39.5271C15.8888 41.888 17.5457 43.8811 19.5753 45.307C21.6049 46.7329 23.9359 47.5416 26.3352 47.6523C28.7345 47.7629 31.1178 47.1716 33.2468 45.9374C35.3757 44.7033 37.1756 42.8696 38.4664 40.6199C30.5556 40.7383 22.645 40.3735 14.7702 39.5271Z" fill="#0B4E17"/>
<path d="M39.9455 36.4571C40.6187 34.2137 40.8127 31.827 40.5121 29.4859C40.2115 27.1448 39.4246 24.9135 38.2137 22.9687C37.0027 21.0239 35.401 19.419 33.5353 18.2809C31.6695 17.1428 29.591 16.5028 27.4641 16.4115C25.3372 16.3202 23.2204 16.7802 21.2812 17.7551C19.3421 18.73 17.6337 20.1929 16.2914 22.0281C14.9491 23.8634 14.0097 26.0206 13.5475 28.329C13.0853 30.6374 13.113 33.0336 13.6285 35.328C22.3199 36.9673 31.1661 37.3468 39.9455 36.4571Z" fill="#0B4E17"/>
<path d="M30.0725 26.2416C30.9578 26.2416 31.6756 25.4442 31.6756 24.4605C31.6756 23.4769 30.9578 22.6794 30.0725 22.6794C29.1871 22.6794 28.4694 23.4769 28.4694 24.4605C28.4694 25.4442 29.1871 26.2416 30.0725 26.2416Z" fill="white"/>
<path d="M21.822 33.1662C23.2976 33.1662 24.4938 31.8372 24.4938 30.1977C24.4938 28.5583 23.2976 27.2292 21.822 27.2292C20.3464 27.2292 19.1502 28.5583 19.1502 30.1977C19.1502 31.8372 20.3464 33.1662 21.822 33.1662Z" fill="white"/>
<path d="M62.1467 30.2584C63.1304 30.2584 63.9278 29.3724 63.9278 28.2795C63.9278 27.1865 63.1304 26.3005 62.1467 26.3005C61.163 26.3005 60.3655 27.1865 60.3655 28.2795C60.3655 29.3724 61.163 30.2584 62.1467 30.2584Z" fill="#0B4E17"/>
<path d="M21.8917 90.8157C22.482 90.8157 22.9605 90.2841 22.9605 89.6283C22.9605 88.9725 22.482 88.4409 21.8917 88.4409C21.3015 88.4409 20.823 88.9725 20.823 89.6283C20.823 90.2841 21.3015 90.8157 21.8917 90.8157Z" fill="#E6E6E6"/>
<path d="M96.7018 131.583C97.2921 131.583 97.7706 131.051 97.7706 130.395C97.7706 129.74 97.2921 129.208 96.7018 129.208C96.1116 129.208 95.6331 129.74 95.6331 130.395C95.6331 131.051 96.1116 131.583 96.7018 131.583Z" fill="#E6E6E6"/>
<path d="M27.0572 67.8593C27.3523 67.8593 27.5916 67.5935 27.5916 67.2656C27.5916 66.9377 27.3523 66.6719 27.0572 66.6719C26.7621 66.6719 26.5228 66.9377 26.5228 67.2656C26.5228 67.5935 26.7621 67.8593 27.0572 67.8593Z" fill="#E6E6E6"/>
<path d="M71.2308 112.189C71.5259 112.189 71.7651 111.923 71.7651 111.595C71.7651 111.267 71.5259 111.001 71.2308 111.001C70.9357 111.001 70.6964 111.267 70.6964 111.595C70.6964 111.923 70.9357 112.189 71.2308 112.189Z" fill="#E6E6E6"/>
<path d="M151.563 106.45C151.858 106.45 152.097 106.184 152.097 105.856C152.097 105.528 151.858 105.262 151.563 105.262C151.268 105.262 151.028 105.528 151.028 105.856C151.028 106.184 151.268 106.45 151.563 106.45Z" fill="#E6E6E6"/>
<path d="M126.448 124.063C126.743 124.063 126.982 123.797 126.982 123.469C126.982 123.141 126.743 122.875 126.448 122.875C126.153 122.875 125.913 123.141 125.913 123.469C125.913 123.797 126.153 124.063 126.448 124.063Z" fill="#E6E6E6"/>
<path d="M100.264 102.69C100.559 102.69 100.799 102.424 100.799 102.096C100.799 101.768 100.559 101.502 100.264 101.502C99.9691 101.502 99.7299 101.768 99.7299 102.096C99.7299 102.424 99.9691 102.69 100.264 102.69Z" fill="#E6E6E6"/>
<path d="M66.4216 44.1115C66.7167 44.1115 66.9559 43.8457 66.9559 43.5178C66.9559 43.1899 66.7167 42.9241 66.4216 42.9241C66.1265 42.9241 65.8872 43.1899 65.8872 43.5178C65.8872 43.8457 66.1265 44.1115 66.4216 44.1115Z" fill="#E6E6E6"/>
<path d="M70.6964 14.8222C70.9915 14.8222 71.2308 14.5564 71.2308 14.2285C71.2308 13.9006 70.9915 13.6348 70.6964 13.6348C70.4013 13.6348 70.162 13.9006 70.162 14.2285C70.162 14.5564 70.4013 14.8222 70.6964 14.8222Z" fill="#E6E6E6"/>
<path d="M68.2028 138.114C68.4979 138.114 68.7371 137.848 68.7371 137.52C68.7371 137.192 68.4979 136.926 68.2028 136.926C67.9076 136.926 67.6684 137.192 67.6684 137.52C67.6684 137.848 67.9076 138.114 68.2028 138.114Z" fill="#E6E6E6"/>
<path d="M41.8411 125.646C42.1362 125.646 42.3754 125.38 42.3754 125.052C42.3754 124.724 42.1362 124.458 41.8411 124.458C41.5459 124.458 41.3067 124.724 41.3067 125.052C41.3067 125.38 41.5459 125.646 41.8411 125.646Z" fill="#E6E6E6"/>
<path d="M125.379 104.273C125.674 104.273 125.913 104.007 125.913 103.679C125.913 103.351 125.674 103.085 125.379 103.085C125.084 103.085 124.845 103.351 124.845 103.679C124.845 104.007 125.084 104.273 125.379 104.273Z" fill="#E6E6E6"/>
<path d="M26.4282 46.2687C27.3136 46.2687 28.0313 45.4713 28.0313 44.4876C28.0313 43.504 27.3136 42.7065 26.4282 42.7065C25.5429 42.7065 24.8251 43.504 24.8251 44.4876C24.8251 45.4713 25.5429 46.2687 26.4282 46.2687Z" fill="white"/>
<path d="M62.6811 71.8174C62.6811 77.137 55.2786 89.5325 53.1153 93.0414C53.05 93.1475 52.9624 93.2343 52.8601 93.2942C52.7578 93.3542 52.6439 93.3856 52.5283 93.3856C52.4126 93.3856 52.2987 93.3542 52.1965 93.2942C52.0942 93.2343 52.0066 93.1475 51.9413 93.0414C49.778 89.5325 42.3755 77.137 42.3755 71.8174C42.3755 70.336 42.6381 68.8692 43.1483 67.5006C43.6586 66.132 44.4064 64.8885 45.3492 63.841C46.292 62.7936 47.4112 61.9627 48.643 61.3958C49.8748 60.8289 51.195 60.5371 52.5283 60.5371C53.8616 60.5371 55.1818 60.8289 56.4136 61.3958C57.6454 61.9627 58.7646 62.7936 59.7074 63.841C60.6502 64.8885 61.398 66.132 61.9083 67.5006C62.4185 68.8692 62.6811 70.336 62.6811 71.8174Z" fill="white"/>
<path d="M52.5283 76.7648C55.3811 76.7648 57.6937 74.1953 57.6937 71.0257C57.6937 67.8561 55.3811 65.2866 52.5283 65.2866C49.6754 65.2866 47.3628 67.8561 47.3628 71.0257C47.3628 74.1953 49.6754 76.7648 52.5283 76.7648Z" fill="#0B4E17"/>
<path d="M52.4392 99.5231C55.7346 99.5231 58.4062 98.9472 58.4062 98.2368C58.4062 97.5264 55.7346 96.9504 52.4392 96.9504C49.1437 96.9504 46.4722 97.5264 46.4722 98.2368C46.4722 98.9472 49.1437 99.5231 52.4392 99.5231Z" fill="white"/>
<path d="M145.497 62.916C145.452 63.0133 145.414 63.1145 145.383 63.2185L136.872 65.846L135.338 64.1783L132.771 66.4212L135.228 69.6665C135.426 69.9287 135.696 70.1123 135.996 70.1897C136.297 70.2671 136.611 70.2341 136.894 70.0958L146.087 65.5867C146.399 65.8272 146.77 65.9565 147.149 65.9575C147.529 65.9584 147.9 65.8309 148.213 65.5918C148.526 65.3528 148.766 65.0136 148.901 64.6194C149.036 64.2252 149.06 63.7946 148.969 63.3849C148.879 62.9752 148.678 62.6058 148.394 62.3259C148.11 62.046 147.756 61.8688 147.379 61.8179C147.002 61.767 146.62 61.8448 146.284 62.041C145.948 62.2371 145.674 62.5423 145.497 62.916Z" fill="#FFB8B8"/>
<path d="M136.572 65.9999L133.378 68.7625C133.287 68.8411 133.182 68.897 133.07 68.9264C132.957 68.9559 132.841 68.9581 132.728 68.933C132.615 68.9079 132.508 68.856 132.415 68.7809C132.322 68.7058 132.244 68.6093 132.187 68.4979L130.202 64.5938C129.843 64.0749 129.683 63.4187 129.758 62.7693C129.834 62.1198 130.138 61.5301 130.604 61.1294C131.07 60.7287 131.66 60.5498 132.245 60.6318C132.83 60.7139 133.361 61.0502 133.723 61.5671L136.633 64.6531C136.717 64.7415 136.782 64.8488 136.825 64.9677C136.867 65.0866 136.886 65.2143 136.88 65.3421C136.875 65.4699 136.844 65.5948 136.791 65.7083C136.738 65.8219 136.663 65.9213 136.572 65.9999Z" fill="#0B4E17"/>
<path d="M146.313 61.6093L149.553 63.2287C149.689 63.2965 149.795 63.4214 149.847 63.576C149.9 63.7305 149.896 63.902 149.835 64.0527L149.451 64.9999C149.496 65.0227 149.531 65.0643 149.549 65.1158C149.566 65.1672 149.565 65.2243 149.545 65.2746L149.391 65.6535C149.371 65.7036 149.333 65.7427 149.287 65.7622C149.241 65.7818 149.189 65.7801 149.144 65.7577L148.991 66.1366C149.036 66.1593 149.071 66.201 149.089 66.2524C149.106 66.3039 149.105 66.361 149.084 66.4113L148.931 66.7902C148.911 66.8403 148.873 66.8794 148.827 66.8989C148.78 66.9184 148.729 66.9168 148.684 66.8944L146.613 72.0093C146.552 72.16 146.439 72.2776 146.3 72.3363C146.161 72.3949 146.007 72.3897 145.871 72.3219L142.631 70.7026C142.496 70.6347 142.39 70.5098 142.337 70.3553C142.284 70.2008 142.289 70.0293 142.35 69.8785L145.572 61.9219C145.633 61.7712 145.745 61.6536 145.884 61.595C146.023 61.5363 146.178 61.5415 146.313 61.6093Z" fill="#3F3D56"/>
<path d="M143.22 70.1987L145.818 71.4991C145.949 71.5638 146.097 71.5687 146.23 71.5127C146.364 71.4566 146.472 71.3442 146.531 71.2L147.731 68.2336L148.148 67.2053L149.234 64.5214C149.292 64.377 149.297 64.2129 149.246 64.065C149.196 63.9171 149.095 63.7974 148.965 63.732L148.148 63.3228L146.364 62.4316C146.234 62.367 146.086 62.3625 145.953 62.4189C145.82 62.4754 145.712 62.5883 145.654 62.7328L144.603 65.3274L143.407 68.2814L142.95 69.4094C142.892 69.5537 142.888 69.7179 142.938 69.8658C142.989 70.0138 143.09 70.1335 143.22 70.1987Z" fill="#F2F2F2"/>
<path d="M137.789 106.953L139.973 106.953L141.012 97.5947L137.789 97.5949L137.789 106.953Z" fill="#FFB8B8"/>
<path d="M137.232 106.161L141.533 106.161C141.892 106.161 142.249 106.24 142.582 106.393C142.914 106.546 143.216 106.77 143.471 107.053C143.725 107.335 143.927 107.671 144.065 108.041C144.202 108.41 144.273 108.806 144.273 109.206V109.305L137.232 109.305L137.232 106.161Z" fill="#2F2E41"/>
<path d="M143.489 106.36L145.673 106.359L146.712 97.0012L143.489 97.0014L143.489 106.36Z" fill="#FFB8B8"/>
<path d="M142.932 105.568L147.232 105.567C147.592 105.567 147.949 105.646 148.281 105.799C148.614 105.952 148.916 106.176 149.17 106.459C149.425 106.742 149.627 107.078 149.765 107.447C149.902 107.816 149.973 108.212 149.973 108.612V108.711L142.932 108.712L142.932 105.568Z" fill="#2F2E41"/>
<path d="M127.994 84.9935C128.459 86.5258 129.342 87.8595 130.519 88.8101C131.697 89.7606 133.111 90.281 134.567 90.2992L134.677 90.3012C135.804 90.3368 137.128 89.9331 138.426 89.3532C140.991 88.2074 143.455 86.3729 144.108 85.8682L143 97.7006L142.552 102.498C142.54 102.622 142.552 102.747 142.587 102.866C142.622 102.984 142.679 103.093 142.754 103.186C142.83 103.279 142.921 103.353 143.024 103.404C143.126 103.455 143.237 103.481 143.35 103.481H146.116C146.293 103.481 146.466 103.416 146.606 103.296C146.747 103.176 146.847 103.007 146.892 102.816L151.459 83.4914C151.596 82.913 151.607 82.3067 151.491 81.7226C151.376 81.1385 151.136 80.5934 150.793 80.1325C150.45 79.6717 150.013 79.3082 149.518 79.0722C149.024 78.8362 148.486 78.7345 147.949 78.7755L138.462 79.4978L139.125 76.5531L130.657 75.9277L130.632 75.9475C130.429 76.1118 130.231 76.284 130.042 76.464C129.57 76.9076 129.152 77.4171 128.797 77.9799C128.163 78.9898 127.759 80.1554 127.619 81.3769C127.479 82.5984 127.608 83.8394 127.994 84.9935Z" fill="#2F2E41"/>
<path d="M127.994 84.9935C128.459 86.5258 129.342 87.8596 130.519 88.8101C131.697 89.7607 133.111 90.281 134.567 90.2992C135.958 89.5166 137.301 88.6313 138.587 87.6493L138.426 89.3533L137.03 104.279C137.019 104.403 137.031 104.528 137.066 104.647C137.101 104.765 137.157 104.875 137.233 104.967C137.308 105.06 137.4 105.134 137.502 105.185C137.605 105.236 137.716 105.262 137.828 105.262H140.594C140.771 105.262 140.944 105.197 141.084 105.077C141.225 104.957 141.326 104.788 141.371 104.597L143 97.7006L145.938 85.2726C146.075 84.6941 146.086 84.0878 145.97 83.5037C145.854 82.9196 145.615 82.3746 145.271 81.9137C144.928 81.4528 144.491 81.0893 143.997 80.8533C143.502 80.6173 142.964 80.5156 142.427 80.5566L132.94 81.279L133.603 78.3342L128.797 77.98C128.163 78.9898 127.759 80.1554 127.619 81.3769C127.479 82.5984 127.608 83.8394 127.994 84.9935Z" fill="#2F2E41"/>
<path d="M130.03 77.1467L129.966 77.1382L128.489 69.0668C128.476 68.9968 127.268 62.0348 130.971 58.3952L131.036 57.8971C131.052 57.7696 131.093 57.6476 131.157 57.5396C131.22 57.4315 131.303 57.3399 131.401 57.2711C131.499 57.2023 131.609 57.1579 131.724 57.141C131.839 57.1241 131.956 57.1351 132.067 57.1732L135.555 58.3754C135.752 58.443 135.919 58.5929 136.019 58.7936C136.119 58.9944 136.146 59.2305 136.093 59.4524L135.754 60.8855C136.224 61.499 141.759 68.9028 139.831 74.6069L138.967 78.3575L130.03 77.1467Z" fill="#0B4E17"/>
<path d="M144.515 70.8472C144.432 70.9056 144.352 70.9711 144.278 71.0432L135.747 68.4987L135.189 66.1963L131.952 66.6774L132.582 70.8599C132.633 71.1977 132.782 71.5081 133.005 71.7445C133.228 71.9808 133.514 72.1302 133.821 72.1704L143.801 73.4803C143.96 73.8637 144.219 74.1843 144.546 74.3995C144.872 74.6148 145.25 74.7145 145.629 74.6853C146.008 74.6562 146.37 74.4997 146.666 74.2365C146.963 73.9733 147.181 73.616 147.29 73.2121C147.4 72.8082 147.396 72.3768 147.279 71.9753C147.163 71.5738 146.939 71.2212 146.638 70.9645C146.337 70.7078 145.972 70.5591 145.593 70.5381C145.214 70.5172 144.838 70.625 144.515 70.8472Z" fill="#FFB8B8"/>
<path d="M135.418 68.4619L131.403 69.0365C131.289 69.0528 131.173 69.0416 131.063 69.0037C130.953 68.9657 130.851 68.9018 130.766 68.8164C130.68 68.731 130.612 68.626 130.566 68.5087C130.52 68.3913 130.497 68.2644 130.499 68.1364L130.576 63.6531C130.504 63.0032 130.667 62.3481 131.029 61.8315C131.391 61.3148 131.922 60.9788 132.507 60.897C133.092 60.8153 133.682 60.9945 134.148 61.3954C134.614 61.7963 134.918 62.3861 134.993 63.0355L136.087 67.3367C136.118 67.4599 136.125 67.5891 136.108 67.7155C136.09 67.842 136.048 67.9627 135.984 68.0695C135.921 68.1763 135.837 68.2666 135.74 68.3343C135.642 68.402 135.532 68.4455 135.418 68.4619Z" fill="#0B4E17"/>
<path d="M134.288 56.0777C136.704 56.0777 138.663 53.9015 138.663 51.2171C138.663 48.5326 136.704 46.3564 134.288 46.3564C131.872 46.3564 129.913 48.5326 129.913 51.2171C129.913 53.9015 131.872 56.0777 134.288 56.0777Z" fill="#FFB8B8"/>
<path d="M134.058 51.6231L133.51 50.5149C132.473 55.2115 134.305 59.0984 134.305 59.0984L127.192 55.4173L127.26 54.1112L126.556 54.9986L125.545 54.3794L125.411 53.5323L124.648 53.7423L127.434 48.1245C130.139 42.7786 134.07 44.8196 134.07 44.8196C140.325 44.4893 139.561 51.3454 139.561 51.3454L134.058 51.6231Z" fill="#2F2E41"/>
<path d="M84.2576 87.845C85.2663 87.1265 84.0396 83.0011 81.5178 78.6304C78.996 74.2598 76.134 71.2991 75.1254 72.0175C74.1167 72.736 75.3433 76.8615 77.8651 81.2321C80.3869 85.6027 83.2489 88.5634 84.2576 87.845Z" fill="#3F3D56"/>
</g>
<defs>
<clipPath id="clip0_118_838">
<rect width="175" height="151" fill="white"/>
</clipPath>
</defs>
</svg>
