<svg width="814" height="817" viewBox="0 0 814 817" fill="none" xmlns="http://www.w3.org/2000/svg">
<g filter="url(#filter0_f_118_837)">
<path fill-rule="evenodd" clip-rule="evenodd" d="M430.879 253.875C494.326 237.687 555.393 155.723 608.882 188.782C662.461 221.896 604.542 297.427 589.824 352.111C582.291 380.099 541.162 398.454 544.77 426.994C553.536 496.334 665.508 559.769 623.676 619.888C589.762 668.628 497.804 591.305 430.879 590.673C365.244 590.053 297.496 644.772 241.188 616.277C185.584 588.139 183.614 518.996 181.123 464.284C179.095 419.764 202.473 378.916 228.617 340.222C250.108 308.413 278.245 279.786 316.941 263.266C351.853 248.362 393.433 263.429 430.879 253.875Z" fill="#422311"/>
<path fill-rule="evenodd" clip-rule="evenodd" d="M430.879 253.875C494.326 237.687 555.393 155.723 608.882 188.782C662.461 221.896 604.542 297.427 589.824 352.111C582.291 380.099 541.162 398.454 544.77 426.994C553.536 496.334 665.508 559.769 623.676 619.888C589.762 668.628 497.804 591.305 430.879 590.673C365.244 590.053 297.496 644.772 241.188 616.277C185.584 588.139 183.614 518.996 181.123 464.284C179.095 419.764 202.473 378.916 228.617 340.222C250.108 308.413 278.245 279.786 316.941 263.266C351.853 248.362 393.433 263.429 430.879 253.875Z" stroke="black"/>
</g>
<defs>
<filter id="filter0_f_118_837" x="0.500008" y="0.499023" width="813" height="816.001" filterUnits="userSpaceOnUse" color-interpolation-filters="sRGB">
<feFlood flood-opacity="0" result="BackgroundImageFix"/>
<feBlend mode="normal" in="SourceGraphic" in2="BackgroundImageFix" result="shape"/>
<feGaussianBlur stdDeviation="90" result="effect1_foregroundBlur_118_837"/>
</filter>
</defs>
</svg>
